<svg id="svg" version="1.1" xmlns="http://www.w3.org/2000/svg" xmlns:xlink="http://www.w3.org/1999/xlink" width="400" height="101" viewBox="0, 0, 400,101"><g id="svgg"><path id="path0" d="M66.019 0.187 C 61.779 0.329,61.684 0.341,61.986 0.697 C 62.088 0.818,62.560 1.517,63.035 2.250 C 63.511 2.983,63.961 3.658,64.036 3.750 C 64.290 4.061,64.973 5.080,65.432 5.833 C 65.682 6.246,65.938 6.621,65.999 6.667 C 66.108 6.749,67.926 9.428,68.250 9.985 C 68.509 10.430,69.739 12.240,69.845 12.333 C 69.930 12.407,71.295 14.465,71.744 15.197 C 72.117 15.804,73.917 18.422,74.016 18.500 C 74.073 18.546,74.245 18.808,74.397 19.083 C 74.549 19.358,74.929 19.921,75.242 20.333 C 75.555 20.746,75.816 21.171,75.822 21.278 C 75.828 21.385,75.890 21.497,75.958 21.528 C 76.027 21.558,76.681 22.483,77.411 23.583 C 78.141 24.683,78.837 25.696,78.957 25.833 C 79.078 25.971,79.505 26.608,79.907 27.250 C 80.309 27.892,80.744 28.535,80.873 28.679 C 81.373 29.237,81.342 29.471,80.741 29.670 C 80.425 29.774,80.167 29.920,80.167 29.995 C 80.167 30.069,79.960 30.180,79.708 30.241 C 79.289 30.342,76.956 31.442,73.333 33.247 C 72.554 33.635,71.654 34.079,71.333 34.233 C 71.012 34.388,70.525 34.632,70.250 34.776 C 69.653 35.090,64.866 37.568,63.333 38.357 C 62.737 38.664,62.212 38.955,62.167 39.004 C 62.121 39.053,61.754 39.238,61.351 39.416 C 60.948 39.594,60.535 39.817,60.434 39.911 C 60.333 40.006,59.896 40.250,59.464 40.453 L 58.679 40.823 57.944 40.262 C 57.539 39.953,57.055 39.619,56.867 39.518 C 56.680 39.418,56.426 39.239,56.305 39.121 C 56.183 39.002,55.821 38.724,55.500 38.503 C 55.179 38.281,54.878 38.045,54.832 37.979 C 54.785 37.914,53.922 37.259,52.915 36.524 C 51.908 35.790,50.896 35.030,50.667 34.835 C 50.438 34.641,49.901 34.219,49.474 33.897 L 48.698 33.313 46.488 33.532 C 43.826 33.795,43.871 33.705,45.408 35.667 C 46.090 36.537,46.764 37.400,46.906 37.583 C 47.134 37.879,48.998 40.220,50.090 41.583 C 50.310 41.858,50.646 42.271,50.836 42.500 C 51.027 42.729,51.739 43.629,52.419 44.500 C 53.099 45.371,53.827 46.293,54.036 46.550 C 54.596 47.238,54.611 47.323,54.740 50.583 C 54.806 52.233,54.893 53.846,54.934 54.167 C 54.974 54.487,55.117 56.808,55.251 59.322 C 55.386 61.845,55.571 63.971,55.664 64.064 C 55.779 64.179,55.833 64.169,55.833 64.033 C 55.833 63.923,55.911 63.833,56.006 63.833 C 56.217 63.833,58.446 62.326,59.019 61.795 C 59.357 61.482,59.477 61.128,59.657 59.915 C 59.780 59.094,59.943 58.308,60.021 58.169 C 60.099 58.030,60.348 56.904,60.574 55.667 C 61.889 48.474,61.455 49.217,64.719 48.566 C 65.836 48.343,66.900 48.090,67.083 48.004 C 67.267 47.917,68.204 47.684,69.167 47.486 C 70.129 47.288,70.992 47.071,71.083 47.004 C 71.175 46.937,72.075 46.712,73.083 46.505 C 74.092 46.297,74.992 46.072,75.083 46.005 C 75.175 45.937,75.997 45.712,76.909 45.504 C 77.822 45.297,78.684 45.063,78.826 44.985 C 78.967 44.907,79.796 44.659,80.667 44.433 C 83.964 43.578,85.426 43.162,85.706 43.001 C 86.356 42.625,86.448 42.775,86.649 44.542 C 86.859 46.373,86.897 46.613,87.045 47.000 C 87.098 47.137,87.302 48.825,87.500 50.750 C 87.698 52.675,87.906 54.362,87.963 54.500 C 88.068 54.755,88.636 59.155,89.416 65.750 C 89.655 67.767,89.916 69.567,89.997 69.750 C 90.078 69.933,90.313 71.685,90.519 73.642 C 90.780 76.125,90.959 77.225,91.110 77.283 C 91.373 77.384,92.472 76.536,96.583 73.060 C 96.858 72.828,97.190 72.576,97.320 72.500 C 97.603 72.335,97.805 71.052,97.821 69.302 C 97.828 68.596,97.898 67.979,97.978 67.930 C 98.058 67.881,98.135 67.445,98.151 66.962 C 98.196 65.556,99.663 44.789,100.103 39.326 C 100.202 38.103,100.194 38.110,102.333 37.415 C 102.837 37.251,103.287 37.065,103.333 37.000 C 103.379 36.935,103.828 36.747,104.330 36.582 C 104.832 36.416,105.593 36.105,106.021 35.891 C 106.449 35.676,106.890 35.500,107.002 35.500 C 107.113 35.500,107.477 35.355,107.811 35.178 C 108.499 34.813,111.966 33.167,112.047 33.167 C 112.076 33.167,113.071 32.630,114.258 31.973 C 115.445 31.317,116.698 30.634,117.042 30.456 C 117.385 30.278,117.667 30.065,117.667 29.983 C 117.667 29.900,117.744 29.833,117.839 29.833 C 118.010 29.833,120.313 28.314,120.872 27.833 C 121.032 27.696,121.401 27.396,121.692 27.167 C 122.657 26.407,124.833 24.279,124.833 24.095 C 124.833 23.995,124.983 23.820,125.167 23.705 C 125.350 23.591,125.500 23.404,125.500 23.290 C 125.500 23.176,125.685 22.869,125.910 22.607 C 126.135 22.345,126.447 21.783,126.604 21.357 C 126.760 20.932,126.951 20.512,127.028 20.425 C 127.230 20.194,127.198 19.500,126.984 19.500 C 126.884 19.500,126.597 19.354,126.347 19.176 C 126.097 18.998,125.298 18.691,124.571 18.493 C 123.845 18.295,122.950 18.047,122.583 17.942 C 121.682 17.682,115.556 17.710,115.292 17.975 C 115.186 18.080,114.871 18.167,114.592 18.167 C 114.312 18.167,113.183 18.320,112.083 18.507 C 110.048 18.853,109.939 18.876,109.500 19.047 C 109.362 19.100,108.500 19.308,107.583 19.509 C 106.667 19.709,105.842 19.931,105.750 20.001 C 105.658 20.072,104.912 20.297,104.092 20.500 C 103.272 20.704,102.485 20.936,102.342 21.014 C 102.200 21.093,101.521 21.317,100.833 21.513 C 100.146 21.708,99.508 21.926,99.417 21.997 C 99.325 22.068,98.688 22.297,98.000 22.507 C 97.313 22.717,96.667 22.952,96.565 23.029 C 95.996 23.460,94.784 23.652,94.432 23.367 C 93.806 22.859,92.288 21.401,88.721 17.878 C 86.793 15.974,82.910 12.167,80.093 9.417 C 77.276 6.667,73.956 3.423,72.716 2.208 C 71.475 0.994,70.376 0.012,70.272 0.026 C 70.168 0.040,68.254 0.113,66.019 0.187 M276.214 14.008 C 276.142 14.074,275.146 14.292,274.000 14.492 C 272.854 14.692,271.767 14.922,271.583 15.003 C 271.400 15.083,270.537 15.238,269.667 15.347 C 267.784 15.582,267.798 15.572,267.657 16.791 C 267.513 18.035,268.236 18.698,268.953 17.981 C 269.089 17.844,269.340 17.872,269.901 18.086 C 271.260 18.605,271.167 17.281,271.167 36.078 L 271.167 52.771 270.753 53.628 C 270.526 54.099,270.170 54.574,269.962 54.684 C 269.754 54.794,269.546 54.936,269.500 55.000 C 269.454 55.064,269.079 55.228,268.667 55.363 L 267.917 55.609 267.771 56.895 C 267.593 58.466,267.553 58.425,269.038 58.186 C 269.705 58.079,270.775 57.912,271.417 57.815 C 272.072 57.716,274.057 57.667,275.944 57.703 L 279.305 57.768 279.397 57.305 C 279.448 57.051,279.540 56.352,279.601 55.752 L 279.713 54.661 278.212 54.688 C 276.212 54.725,275.933 54.532,275.657 52.924 C 275.429 51.591,275.737 29.361,275.995 28.543 C 276.075 28.290,276.186 26.696,276.242 25.000 C 276.373 21.062,276.634 17.316,276.853 16.250 C 277.181 14.650,277.208 14.333,277.018 14.333 C 276.917 14.333,276.833 14.233,276.833 14.111 C 276.833 13.875,276.432 13.808,276.214 14.008 M55.250 15.341 C 52.861 15.477,50.599 15.765,50.083 15.999 C 49.900 16.082,48.970 16.304,48.017 16.492 C 47.063 16.680,46.201 16.896,46.100 16.973 C 45.999 17.049,45.317 17.284,44.583 17.496 C 43.850 17.707,43.212 17.927,43.167 17.983 C 43.121 18.039,42.596 18.257,42.000 18.467 C 41.404 18.677,40.892 18.920,40.861 19.007 C 40.831 19.095,40.707 19.167,40.586 19.167 C 40.146 19.167,35.474 21.716,35.361 22.018 C 35.331 22.100,35.228 22.167,35.132 22.167 C 34.279 22.167,28.002 27.664,25.833 30.310 C 25.512 30.701,25.134 31.148,24.992 31.302 C 24.849 31.457,24.603 31.771,24.443 32.000 C 24.284 32.229,23.825 32.867,23.424 33.417 C 22.350 34.890,20.817 37.521,19.928 39.417 C 19.498 40.333,19.048 41.271,18.928 41.500 C 18.808 41.729,18.584 42.329,18.429 42.833 C 18.274 43.337,18.048 43.938,17.927 44.167 C 17.806 44.396,17.570 45.183,17.402 45.917 C 17.234 46.650,17.045 47.288,16.982 47.333 C 16.829 47.444,16.139 51.528,16.254 51.643 C 16.339 51.728,17.325 51.223,17.500 51.005 C 17.546 50.947,17.846 50.720,18.167 50.500 C 18.487 50.280,18.787 50.052,18.833 49.995 C 18.879 49.937,19.484 49.519,20.177 49.065 C 20.870 48.610,21.545 48.149,21.677 48.038 C 21.809 47.928,22.397 47.518,22.985 47.126 C 23.992 46.454,24.075 46.349,24.435 45.282 C 24.645 44.659,25.046 43.666,25.325 43.075 C 25.605 42.483,25.833 41.924,25.833 41.833 C 25.833 41.728,26.965 41.667,28.878 41.667 C 31.612 41.667,31.981 41.633,32.503 41.335 C 32.822 41.152,33.458 40.805,33.917 40.563 C 34.375 40.321,34.787 40.074,34.833 40.015 C 34.879 39.956,35.246 39.762,35.649 39.584 C 36.052 39.406,36.467 39.183,36.571 39.089 C 36.675 38.994,37.126 38.729,37.574 38.500 C 38.939 37.802,38.679 37.753,33.331 37.706 L 28.329 37.662 28.623 37.209 C 28.784 36.959,29.013 36.642,29.130 36.503 C 29.248 36.364,29.932 35.537,30.651 34.667 C 31.985 33.050,33.768 31.267,35.239 30.080 C 35.691 29.715,36.301 29.210,36.594 28.958 C 36.887 28.706,37.202 28.500,37.293 28.500 C 37.385 28.500,37.552 28.388,37.666 28.251 C 37.779 28.114,38.285 27.758,38.788 27.459 C 39.292 27.161,39.977 26.746,40.310 26.538 C 41.117 26.035,43.709 24.791,44.750 24.407 C 45.208 24.239,45.621 24.055,45.667 24.000 C 45.712 23.945,46.087 23.806,46.500 23.690 C 46.913 23.574,47.400 23.437,47.583 23.385 C 47.767 23.334,47.277 23.920,46.494 24.687 C 45.712 25.455,44.850 26.383,44.579 26.750 C 44.307 27.117,44.036 27.454,43.976 27.500 C 43.702 27.709,42.676 29.380,42.749 29.499 C 42.795 29.572,43.110 29.569,43.450 29.492 C 43.790 29.416,44.730 29.301,45.538 29.238 C 46.346 29.175,47.048 29.058,47.097 28.978 C 47.146 28.899,47.430 28.833,47.727 28.833 C 48.151 28.833,48.422 28.671,48.987 28.078 C 49.383 27.663,50.053 27.044,50.477 26.703 C 50.900 26.362,51.393 25.952,51.571 25.792 C 51.750 25.631,51.980 25.500,52.083 25.500 C 52.186 25.500,52.416 25.366,52.594 25.201 C 52.771 25.037,53.367 24.725,53.917 24.508 C 54.467 24.290,54.992 24.056,55.083 23.988 C 55.175 23.919,55.531 23.811,55.875 23.746 L 56.500 23.630 56.506 28.690 L 56.511 33.750 57.674 34.625 C 58.921 35.563,59.068 35.610,59.784 35.295 C 60.506 34.978,60.495 35.073,60.497 29.188 L 60.500 23.625 61.042 23.729 C 61.620 23.841,64.028 24.829,64.167 25.012 C 64.212 25.073,64.577 25.288,64.977 25.490 C 65.376 25.693,66.644 26.785,67.793 27.917 L 69.883 29.975 70.706 29.651 C 71.158 29.473,71.803 29.183,72.139 29.007 C 72.475 28.831,73.181 28.490,73.708 28.248 C 74.251 28.000,74.667 27.701,74.667 27.560 C 74.667 27.309,74.368 26.654,74.183 26.500 C 74.128 26.454,73.638 25.742,73.093 24.917 C 72.548 24.092,72.059 23.379,72.007 23.333 C 71.954 23.287,71.483 22.613,70.958 21.833 C 70.434 21.054,69.629 19.872,69.169 19.206 C 68.710 18.539,68.333 17.934,68.333 17.860 C 68.333 17.785,68.146 17.549,67.917 17.333 C 67.688 17.118,67.500 16.848,67.500 16.732 C 67.500 15.993,65.715 15.595,61.225 15.332 C 58.332 15.162,58.370 15.162,55.250 15.341 M138.455 19.625 C 138.267 19.832,138.169 20.375,138.115 21.500 C 138.073 22.371,137.994 23.383,137.941 23.750 C 137.747 25.086,137.319 30.208,137.396 30.284 C 137.439 30.328,138.136 30.300,138.945 30.223 L 140.417 30.083 140.674 28.500 C 140.816 27.629,140.979 26.804,141.038 26.667 C 141.096 26.529,141.262 25.990,141.407 25.469 C 141.815 23.998,143.059 23.223,145.167 23.127 C 145.396 23.116,145.658 23.056,145.750 22.992 C 145.842 22.928,146.913 22.824,148.130 22.760 L 150.344 22.644 150.297 37.530 C 150.254 51.125,150.226 52.460,149.969 52.917 C 149.252 54.195,148.651 54.490,146.250 54.745 C 144.543 54.926,144.556 54.919,144.448 55.706 C 144.395 56.097,144.303 56.717,144.244 57.083 L 144.137 57.750 152.610 57.716 L 161.083 57.681 161.284 56.716 C 161.395 56.184,161.489 55.470,161.493 55.128 L 161.500 54.507 159.449 54.611 C 156.728 54.749,155.855 54.498,155.419 53.452 C 155.258 53.066,155.058 52.600,154.975 52.417 C 154.794 52.020,154.883 43.096,155.137 36.250 C 155.460 27.507,155.694 22.919,155.822 22.784 C 155.957 22.643,158.877 22.867,160.667 23.156 C 163.395 23.596,164.135 24.367,164.682 27.333 C 164.791 27.929,164.936 28.492,165.003 28.583 C 165.070 28.675,165.177 29.113,165.241 29.556 L 165.358 30.361 166.804 30.246 C 167.599 30.182,168.298 30.082,168.358 30.023 C 168.480 29.902,168.139 26.504,167.978 26.250 C 167.920 26.158,167.825 25.183,167.765 24.083 C 167.485 18.870,167.743 19.253,164.735 19.592 C 161.637 19.942,143.981 19.934,141.000 19.582 C 139.854 19.447,138.872 19.336,138.817 19.335 C 138.763 19.334,138.600 19.465,138.455 19.625 M284.824 20.017 C 284.731 20.192,284.610 20.811,284.555 21.392 L 284.457 22.448 285.662 22.560 C 288.060 22.783,289.360 23.681,289.470 25.190 C 289.558 26.400,289.187 31.998,289.001 32.250 C 288.934 32.342,288.877 32.529,288.876 32.667 C 288.863 33.726,288.111 41.821,288.000 42.083 C 287.923 42.267,287.698 44.329,287.500 46.667 C 287.302 49.004,287.071 51.142,286.986 51.417 C 286.902 51.692,286.751 52.251,286.651 52.661 C 286.406 53.655,285.450 54.617,284.565 54.759 C 283.486 54.932,283.369 55.103,283.238 56.718 L 283.121 58.167 283.610 58.167 C 283.880 58.167,284.194 58.073,284.308 57.958 C 284.465 57.802,285.700 57.747,289.261 57.740 C 294.604 57.728,294.219 57.842,294.480 56.198 C 294.727 54.639,294.755 54.667,292.948 54.664 C 291.194 54.661,290.665 54.466,290.471 53.750 C 290.333 53.245,290.774 44.805,290.963 44.333 C 291.018 44.196,291.276 41.421,291.537 38.167 C 292.245 29.320,292.424 27.541,292.564 27.917 C 292.632 28.100,292.796 28.475,292.927 28.750 C 293.059 29.025,293.286 29.662,293.432 30.167 C 293.578 30.671,293.797 31.308,293.917 31.583 C 294.038 31.858,294.304 32.608,294.507 33.250 C 294.711 33.892,294.933 34.492,295.002 34.583 C 295.070 34.675,295.299 35.313,295.510 36.000 C 295.722 36.688,295.983 37.400,296.091 37.583 C 296.200 37.767,296.419 38.404,296.579 39.000 C 296.738 39.596,296.928 40.158,297.000 40.250 C 297.073 40.342,297.291 40.936,297.486 41.570 C 297.681 42.205,297.901 42.805,297.976 42.904 C 298.051 43.003,298.241 43.533,298.398 44.083 C 298.555 44.633,298.786 45.308,298.912 45.583 C 299.038 45.858,299.268 46.496,299.424 47.000 C 299.579 47.504,299.803 48.142,299.922 48.417 C 300.040 48.692,300.304 49.442,300.507 50.083 C 300.711 50.725,300.932 51.325,300.999 51.417 C 301.066 51.508,301.288 52.146,301.493 52.833 C 301.698 53.521,301.921 54.158,301.988 54.250 C 302.056 54.342,302.280 54.942,302.485 55.583 C 302.691 56.225,302.960 56.975,303.084 57.250 C 303.207 57.525,303.361 57.963,303.426 58.224 C 303.680 59.243,305.333 58.617,305.675 57.372 C 305.794 56.938,305.940 56.546,305.998 56.500 C 306.056 56.454,306.277 55.854,306.489 55.167 C 306.701 54.479,306.928 53.842,306.994 53.750 C 307.060 53.658,307.288 53.021,307.500 52.333 C 307.712 51.646,307.950 50.999,308.029 50.896 C 308.108 50.794,308.290 50.306,308.435 49.813 C 308.580 49.320,308.803 48.692,308.931 48.417 C 309.059 48.142,309.382 47.279,309.648 46.500 C 310.597 43.722,310.829 43.080,310.971 42.833 C 311.050 42.696,311.286 42.021,311.496 41.333 C 311.705 40.646,311.975 39.896,312.095 39.667 C 312.215 39.438,312.441 38.837,312.596 38.333 C 312.751 37.829,312.935 37.342,313.006 37.250 C 313.077 37.158,313.302 36.521,313.507 35.833 C 313.712 35.146,313.937 34.508,314.007 34.417 C 314.077 34.325,314.303 33.688,314.510 33.000 C 314.716 32.313,314.940 31.712,315.007 31.667 C 315.074 31.621,315.289 31.045,315.485 30.388 C 315.680 29.730,315.950 28.980,316.086 28.721 C 316.221 28.462,316.332 28.156,316.332 28.042 C 316.333 27.927,316.399 27.833,316.480 27.833 C 316.561 27.833,316.681 28.860,316.749 30.116 C 316.816 31.371,316.932 32.515,317.006 32.657 C 317.080 32.800,317.303 35.412,317.502 38.461 C 317.701 41.511,317.899 44.211,317.944 44.461 C 318.088 45.278,318.477 50.551,318.488 51.833 C 318.504 53.748,318.086 54.258,316.000 54.865 C 315.396 55.041,315.241 55.164,315.201 55.500 C 315.175 55.729,315.076 56.071,314.982 56.260 C 314.888 56.449,314.835 56.936,314.864 57.343 L 314.917 58.083 315.583 58.051 C 315.950 58.033,316.962 57.935,317.833 57.833 C 318.704 57.731,321.085 57.671,323.125 57.699 C 326.419 57.744,326.833 57.720,326.833 57.486 C 326.833 57.341,326.886 57.169,326.951 57.105 C 327.111 56.944,327.227 56.232,327.240 55.333 L 327.250 54.584 326.139 54.640 C 324.013 54.747,323.469 54.127,323.089 51.167 C 323.083 51.121,323.023 50.996,322.955 50.890 C 322.887 50.783,322.677 48.046,322.488 44.806 C 322.298 41.567,322.077 38.654,321.995 38.333 C 321.845 37.742,321.321 27.658,321.337 25.667 C 321.351 23.899,322.299 23.038,324.680 22.630 C 325.760 22.445,325.833 22.405,325.833 21.999 C 325.833 21.761,325.913 21.487,326.011 21.389 C 326.108 21.292,326.164 20.883,326.136 20.481 L 326.083 19.750 324.083 19.805 C 322.983 19.835,321.821 19.900,321.500 19.950 C 320.657 20.081,318.285 20.065,316.821 19.919 L 315.558 19.793 315.283 20.688 C 314.762 22.380,314.134 24.251,313.919 24.750 C 313.800 25.025,313.575 25.700,313.419 26.250 C 313.263 26.800,313.080 27.325,313.012 27.417 C 312.944 27.508,312.717 28.183,312.507 28.917 C 312.296 29.650,312.066 30.325,311.994 30.417 C 311.923 30.508,311.693 31.183,311.483 31.917 C 311.273 32.650,311.051 33.287,310.991 33.333 C 310.930 33.379,310.705 34.017,310.492 34.750 C 310.278 35.483,310.052 36.121,309.990 36.167 C 309.928 36.212,309.749 36.700,309.591 37.250 C 309.433 37.800,309.204 38.475,309.082 38.750 C 308.960 39.025,308.691 39.775,308.485 40.417 C 308.280 41.058,308.059 41.658,307.995 41.750 C 307.930 41.842,307.708 42.442,307.500 43.083 C 307.292 43.725,307.069 44.325,307.004 44.417 C 306.939 44.508,306.711 45.146,306.497 45.833 C 306.283 46.521,306.017 47.233,305.907 47.417 C 305.797 47.600,305.651 47.975,305.583 48.250 C 305.504 48.569,305.428 48.659,305.375 48.500 C 305.328 48.362,305.159 47.950,305.000 47.583 C 304.840 47.217,304.577 46.504,304.416 46.000 C 304.255 45.496,304.068 45.008,304.001 44.917 C 303.934 44.825,303.711 44.188,303.506 43.500 C 303.301 42.813,303.083 42.212,303.022 42.167 C 302.961 42.121,302.735 41.521,302.520 40.833 C 302.304 40.146,302.068 39.508,301.995 39.417 C 301.923 39.325,301.738 38.762,301.584 38.167 C 301.431 37.571,301.201 36.858,301.073 36.583 C 300.810 36.017,300.192 34.222,299.581 32.250 C 299.354 31.517,299.096 30.767,299.009 30.583 C 298.921 30.400,298.693 29.688,298.503 29.000 C 298.313 28.313,298.091 27.631,298.011 27.485 C 297.930 27.340,297.695 26.590,297.489 25.819 C 297.283 25.048,297.062 24.379,296.999 24.333 C 296.936 24.287,296.755 23.716,296.596 23.064 C 296.438 22.411,296.204 21.677,296.077 21.432 C 295.950 21.186,295.796 20.721,295.735 20.398 L 295.625 19.810 294.271 19.902 C 293.526 19.953,292.319 20.040,291.588 20.095 C 290.831 20.152,290.006 20.121,289.671 20.022 C 288.451 19.662,285.016 19.658,284.824 20.017 M364.875 26.624 C 364.589 26.877,364.040 27.346,363.656 27.667 C 363.272 27.988,362.625 28.531,362.219 28.875 C 361.812 29.219,361.423 29.500,361.355 29.500 C 361.286 29.500,361.077 29.642,360.891 29.816 C 360.704 29.989,360.319 30.252,360.035 30.399 C 359.052 30.907,358.019 31.678,357.938 31.964 C 357.462 33.653,357.713 34.016,359.517 34.248 C 360.073 34.319,360.416 34.484,360.767 34.851 L 361.250 35.355 361.345 44.552 C 361.445 54.154,361.458 54.327,362.208 55.632 C 363.597 58.049,367.734 59.117,370.458 57.763 C 371.123 57.432,371.667 57.088,371.667 56.998 C 371.667 56.907,371.751 56.833,371.854 56.833 C 372.021 56.833,373.417 55.875,374.474 55.035 C 374.841 54.743,374.852 54.684,374.655 54.027 C 374.354 53.022,374.199 52.949,373.141 53.314 C 370.024 54.386,367.232 53.982,366.491 52.351 C 366.300 51.929,366.054 51.433,365.946 51.250 C 365.621 50.697,365.711 38.675,366.060 36.167 C 366.105 35.846,366.147 35.302,366.154 34.959 L 366.167 34.335 370.393 34.443 L 374.618 34.552 374.736 33.363 C 374.800 32.709,374.912 32.138,374.985 32.093 C 375.057 32.048,375.109 31.765,375.100 31.464 L 375.083 30.917 371.583 30.921 C 369.658 30.924,367.705 30.988,367.242 31.063 L 366.400 31.201 366.523 29.725 C 366.591 28.914,366.691 27.893,366.746 27.456 C 366.887 26.327,365.774 25.831,364.875 26.624 M175.750 30.521 C 174.925 30.700,174.100 30.916,173.917 31.001 C 173.733 31.086,172.771 31.299,171.779 31.474 C 169.685 31.844,169.740 31.805,169.609 33.000 C 169.469 34.280,169.580 34.394,170.915 34.351 C 172.354 34.304,173.073 34.927,173.249 36.374 C 173.551 38.844,173.254 53.062,172.886 53.753 C 172.509 54.461,171.446 55.167,170.757 55.167 C 170.425 55.167,169.905 57.560,170.200 57.735 C 170.227 57.751,173.036 57.735,176.441 57.699 L 182.632 57.633 182.749 56.692 C 182.813 56.174,182.939 55.660,183.029 55.551 C 183.623 54.826,183.181 54.624,180.956 54.603 L 178.829 54.583 178.291 54.008 C 177.548 53.213,177.499 49.312,178.128 41.166 C 178.290 39.065,179.389 37.556,181.655 36.325 C 183.703 35.212,184.519 35.723,184.637 38.194 L 184.708 39.679 186.062 39.631 L 187.417 39.583 187.456 38.833 C 187.562 36.821,187.881 33.732,187.998 33.583 C 188.391 33.086,188.373 30.702,187.974 30.571 C 186.487 30.084,183.533 30.751,182.367 31.838 C 182.209 31.985,181.939 32.184,181.768 32.280 C 181.210 32.592,178.821 35.067,178.459 35.708 C 178.264 36.052,178.044 36.333,177.969 36.333 C 177.799 36.333,177.788 33.933,177.958 33.765 C 178.178 33.547,178.464 30.603,178.287 30.375 C 178.074 30.100,177.554 30.130,175.750 30.521 M200.454 30.428 C 198.057 31.008,192.326 33.995,192.347 34.653 C 192.415 36.867,193.156 37.598,194.399 36.679 C 195.346 35.980,196.894 35.171,197.292 35.168 C 197.406 35.167,197.500 35.107,197.500 35.035 C 197.500 34.568,201.469 34.307,202.348 34.716 C 204.446 35.692,205.226 37.230,205.304 40.542 C 205.355 42.691,205.339 42.833,205.046 42.833 C 204.874 42.833,204.662 42.900,204.575 42.982 C 204.488 43.064,203.854 43.253,203.167 43.402 C 202.479 43.551,201.654 43.779,201.333 43.908 C 201.012 44.038,200.000 44.313,199.083 44.520 C 198.167 44.727,197.379 44.944,197.333 45.003 C 197.287 45.061,196.583 45.254,195.768 45.430 C 190.081 46.658,189.381 53.177,194.520 57.047 C 194.932 57.357,196.346 57.833,196.854 57.833 C 197.015 57.833,197.193 57.908,197.250 58.000 C 197.307 58.092,197.785 58.167,198.313 58.167 C 199.877 58.167,201.458 57.215,204.216 54.615 L 205.243 53.647 205.500 54.702 C 205.826 56.041,206.537 57.049,207.500 57.537 C 207.912 57.746,208.299 57.984,208.358 58.066 C 208.690 58.524,210.924 58.379,211.885 57.837 C 213.852 56.726,216.099 53.892,215.661 53.073 C 215.265 52.333,214.989 52.308,214.013 52.923 C 211.250 54.666,209.338 53.847,209.330 50.917 C 209.325 49.103,209.826 42.144,209.984 41.833 C 210.298 41.217,210.355 36.098,210.055 35.484 C 209.947 35.263,209.725 34.713,209.561 34.260 C 208.526 31.396,204.116 29.540,200.454 30.428 M253.667 30.261 C 252.190 30.517,251.366 30.748,250.666 31.099 C 250.227 31.320,249.818 31.500,249.756 31.500 C 249.520 31.500,247.517 33.027,246.754 33.788 C 245.349 35.191,244.436 36.487,243.668 38.167 C 243.480 38.579,243.207 39.142,243.063 39.417 C 241.990 41.457,241.911 50.085,242.958 50.819 C 243.035 50.873,243.199 51.233,243.324 51.621 C 243.449 52.008,243.689 52.473,243.859 52.655 C 244.028 52.837,244.167 53.053,244.167 53.134 C 244.167 54.101,247.917 57.003,249.917 57.584 C 250.467 57.744,251.097 57.959,251.317 58.062 C 251.852 58.313,256.468 58.317,256.631 58.067 C 256.696 57.967,256.975 57.832,257.250 57.767 C 258.560 57.459,262.390 55.355,263.421 54.378 C 263.702 54.110,263.236 52.549,262.806 52.319 C 262.538 52.175,260.896 52.645,260.417 53.002 C 260.261 53.118,258.821 53.492,257.512 53.757 C 255.559 54.153,252.356 53.720,251.101 52.892 C 249.045 51.535,247.167 48.276,247.167 46.067 C 247.167 45.857,247.092 45.640,247.000 45.583 C 246.908 45.527,246.833 44.810,246.833 43.990 L 246.833 42.500 254.917 42.500 C 264.023 42.500,263.535 42.571,263.748 41.218 C 263.803 40.869,263.893 40.396,263.948 40.167 C 264.271 38.812,263.660 34.645,263.065 34.151 C 262.938 34.046,262.833 33.868,262.833 33.757 C 262.833 33.369,261.078 31.685,260.167 31.198 C 258.787 30.461,255.362 29.967,253.667 30.261 M340.923 30.424 C 340.376 30.562,339.776 30.772,339.589 30.891 C 339.403 31.009,338.781 31.279,338.208 31.490 C 337.635 31.701,337.167 31.925,337.167 31.987 C 337.167 32.050,336.788 32.237,336.326 32.403 C 335.863 32.570,335.395 32.791,335.284 32.895 C 335.174 32.999,334.690 33.266,334.208 33.487 C 333.727 33.709,333.333 33.952,333.333 34.028 C 333.333 34.104,333.221 34.167,333.083 34.167 C 332.820 34.167,332.722 35.000,332.958 35.236 C 333.027 35.304,333.196 35.785,333.334 36.303 C 333.594 37.282,334.029 37.623,334.406 37.143 C 334.657 36.823,336.328 35.721,336.876 35.514 C 337.128 35.419,337.683 35.182,338.110 34.988 C 339.760 34.236,342.338 34.307,343.594 35.139 C 345.302 36.271,345.833 37.661,345.833 41.005 C 345.833 43.077,346.056 42.837,343.583 43.434 C 342.667 43.655,341.767 43.906,341.583 43.991 C 341.400 44.076,340.537 44.307,339.667 44.504 C 338.796 44.701,338.008 44.921,337.917 44.993 C 337.825 45.065,337.150 45.253,336.417 45.412 C 333.833 45.970,332.925 46.620,332.160 48.457 C 331.608 49.785,331.485 52.430,331.948 53.038 C 332.037 53.155,332.238 53.600,332.396 54.027 C 333.462 56.913,338.021 58.958,340.667 57.736 C 341.217 57.482,341.667 57.211,341.667 57.133 C 341.667 57.055,341.835 56.926,342.042 56.845 C 342.445 56.686,343.763 55.604,345.042 54.382 C 345.783 53.673,345.833 53.651,345.833 54.029 C 345.833 54.251,345.896 54.505,345.972 54.592 C 346.048 54.679,346.197 55.055,346.303 55.427 C 346.970 57.781,350.245 59.041,352.461 57.796 C 353.713 57.092,355.688 55.081,356.322 53.864 C 356.674 53.189,355.627 52.029,355.167 52.583 C 355.053 52.721,354.888 52.833,354.801 52.833 C 354.714 52.833,354.532 52.944,354.397 53.079 C 353.841 53.635,351.607 53.914,350.871 53.520 C 349.826 52.961,349.342 49.657,350.002 47.583 C 350.340 46.522,350.853 37.833,350.662 36.414 C 350.361 34.181,348.955 31.986,347.381 31.294 C 347.126 31.182,346.877 31.036,346.828 30.969 C 346.422 30.414,342.424 30.045,340.923 30.424 M389.583 30.269 C 388.238 30.471,387.371 30.713,386.438 31.148 C 385.488 31.591,383.690 32.715,383.500 32.985 C 383.454 33.049,383.253 33.214,383.053 33.351 C 382.503 33.726,380.652 35.994,380.396 36.606 C 380.273 36.902,380.098 37.190,380.007 37.246 C 379.807 37.369,379.167 38.786,379.167 39.105 C 379.167 39.230,379.100 39.333,379.018 39.333 C 378.861 39.333,378.433 40.923,378.139 42.592 C 377.874 44.101,377.787 46.345,377.969 46.999 C 378.058 47.320,378.251 48.228,378.398 49.015 C 378.984 52.167,382.390 56.833,384.105 56.833 C 384.231 56.833,384.333 56.906,384.333 56.995 C 384.333 57.084,384.877 57.315,385.542 57.508 C 386.206 57.701,386.930 57.947,387.150 58.055 C 387.680 58.314,392.192 58.321,392.516 58.064 C 392.645 57.961,393.162 57.743,393.667 57.579 C 394.477 57.315,396.610 56.257,396.833 56.009 C 396.879 55.958,397.273 55.731,397.708 55.503 C 398.144 55.276,398.500 55.042,398.500 54.982 C 398.500 54.922,398.732 54.778,399.016 54.660 C 399.590 54.422,399.602 54.034,399.072 52.916 C 398.661 52.050,398.322 52.067,396.083 53.073 C 391.867 54.967,386.329 53.648,384.517 50.318 C 384.297 49.914,384.026 49.471,383.915 49.333 C 383.804 49.196,383.584 48.558,383.426 47.917 C 383.268 47.275,383.068 46.617,382.982 46.454 C 382.896 46.291,382.778 45.335,382.720 44.329 L 382.616 42.500 390.706 42.500 C 399.875 42.500,399.403 42.570,399.675 41.161 C 400.479 36.993,398.622 31.872,396.075 31.233 C 395.850 31.177,395.667 31.070,395.667 30.995 C 395.667 30.597,391.061 30.047,389.583 30.269 M223.167 30.685 C 222.204 30.757,219.934 30.807,218.123 30.794 C 214.390 30.768,214.556 30.706,214.406 32.171 L 214.295 33.259 215.281 33.462 C 216.943 33.806,217.942 34.814,218.529 36.739 C 218.698 37.295,218.908 37.900,218.994 38.083 C 219.080 38.267,219.309 38.979,219.503 39.667 C 219.696 40.354,219.962 41.153,220.094 41.442 C 220.226 41.731,220.333 42.045,220.333 42.141 C 220.333 42.236,220.550 42.975,220.815 43.782 C 221.080 44.589,221.429 45.700,221.592 46.250 C 221.755 46.800,221.942 47.325,222.007 47.417 C 222.072 47.508,222.254 48.108,222.412 48.750 C 222.569 49.392,222.798 50.142,222.921 50.417 C 223.044 50.692,223.273 51.404,223.431 52.000 C 223.589 52.596,223.789 53.224,223.876 53.395 C 223.963 53.567,224.210 54.317,224.425 55.062 C 224.825 56.448,225.508 58.538,225.594 58.640 C 225.650 58.708,227.433 58.220,227.917 58.006 C 228.100 57.924,228.470 57.791,228.740 57.710 C 229.071 57.610,229.279 57.405,229.383 57.073 C 229.467 56.804,229.754 56.113,230.020 55.538 C 230.286 54.962,230.593 54.156,230.703 53.746 C 230.813 53.336,230.956 53.000,231.021 53.000 C 231.086 53.000,231.301 52.513,231.499 51.918 C 231.697 51.324,231.923 50.798,232.000 50.750 C 232.078 50.702,232.268 50.270,232.423 49.790 C 232.578 49.310,232.797 48.767,232.910 48.583 C 233.023 48.400,233.282 47.800,233.485 47.250 C 233.688 46.700,234.037 45.861,234.261 45.385 C 234.484 44.910,234.667 44.459,234.667 44.383 C 234.667 44.307,234.806 43.984,234.975 43.664 C 235.145 43.345,235.418 42.671,235.583 42.167 C 235.748 41.662,235.935 41.212,236.000 41.167 C 236.064 41.121,236.283 40.633,236.485 40.083 C 236.687 39.533,236.990 38.783,237.158 38.417 C 238.948 34.514,239.421 33.837,240.608 33.492 L 241.299 33.291 241.475 32.109 C 241.571 31.460,241.624 30.902,241.593 30.871 C 241.562 30.840,239.016 30.800,235.937 30.782 C 229.936 30.748,230.167 30.715,230.167 31.589 C 230.167 31.806,230.081 32.173,229.975 32.404 C 229.636 33.149,229.946 33.284,232.162 33.363 C 234.982 33.464,235.183 33.698,234.483 36.065 C 234.290 36.717,234.075 37.325,234.005 37.417 C 233.935 37.508,233.706 38.108,233.496 38.750 C 233.287 39.392,233.023 40.067,232.911 40.250 C 232.798 40.433,232.658 40.792,232.598 41.048 C 232.539 41.303,232.278 41.978,232.019 42.548 C 231.760 43.117,231.452 43.883,231.336 44.250 C 231.219 44.617,231.058 45.000,230.977 45.101 C 230.897 45.203,230.682 45.720,230.500 46.250 C 230.318 46.780,230.103 47.297,230.023 47.399 C 229.943 47.500,229.716 48.057,229.518 48.637 C 229.321 49.216,229.057 49.854,228.931 50.053 C 228.806 50.253,228.611 50.717,228.497 51.083 C 228.104 52.349,228.045 52.289,227.500 50.083 C 227.296 49.258,227.073 48.508,227.005 48.417 C 226.936 48.325,226.709 47.538,226.500 46.667 C 226.291 45.796,226.066 45.008,226.000 44.917 C 225.934 44.825,225.709 44.038,225.500 43.167 C 225.291 42.296,225.066 41.508,225.000 41.417 C 224.934 41.325,224.709 40.537,224.500 39.667 C 224.291 38.796,224.063 38.008,223.994 37.917 C 223.823 37.691,223.332 35.222,223.302 34.444 C 223.266 33.484,223.754 33.205,226.021 32.887 C 226.595 32.806,226.631 32.764,226.729 32.045 C 226.970 30.293,227.197 30.380,223.167 30.685 M256.428 34.024 C 258.072 34.844,259.038 37.013,258.558 38.804 C 258.396 39.410,258.012 39.468,252.807 39.669 C 250.117 39.772,247.748 39.925,247.542 40.008 C 247.261 40.121,247.167 40.102,247.167 39.931 C 247.167 39.581,247.854 37.428,247.995 37.333 C 248.064 37.287,248.236 37.025,248.377 36.750 C 249.722 34.132,253.848 32.735,256.428 34.024 M391.468 33.694 C 391.898 33.800,392.287 33.937,392.333 33.998 C 392.379 34.059,392.642 34.241,392.917 34.403 C 394.278 35.206,395.139 38.584,394.145 39.218 C 393.799 39.439,387.620 39.849,384.500 39.858 C 384.179 39.858,383.708 39.939,383.453 40.035 C 382.901 40.245,382.748 40.145,382.980 39.725 C 383.073 39.555,383.274 39.004,383.427 38.500 C 384.484 35.013,388.091 32.858,391.468 33.694 M42.792 40.694 C 42.540 40.786,42.333 40.930,42.333 41.014 C 42.333 41.098,42.248 41.167,42.144 41.167 C 41.985 41.167,36.023 44.374,33.917 45.594 C 33.550 45.806,32.875 46.181,32.417 46.428 C 31.958 46.675,31.546 46.932,31.500 46.999 C 31.454 47.067,31.117 47.287,30.750 47.489 C 29.314 48.279,28.458 48.797,28.356 48.937 C 28.298 49.017,27.894 49.269,27.458 49.497 C 27.023 49.724,26.667 49.958,26.667 50.018 C 26.667 50.078,26.450 50.216,26.184 50.326 C 25.919 50.436,25.555 50.662,25.377 50.829 C 25.198 50.995,24.822 51.250,24.542 51.395 C 24.261 51.540,23.921 51.770,23.785 51.905 C 23.650 52.041,23.312 52.286,23.036 52.451 C 22.438 52.806,19.786 54.677,19.667 54.828 C 19.621 54.885,19.321 55.111,19.000 55.330 C 18.679 55.548,18.304 55.828,18.167 55.951 C 18.029 56.074,17.204 56.742,16.333 57.435 C 12.618 60.391,7.954 65.000,6.056 67.591 C 5.858 67.862,5.434 68.430,5.115 68.854 C 4.795 69.278,4.440 69.803,4.325 70.021 C 4.211 70.239,4.063 70.454,3.997 70.500 C 3.931 70.546,3.679 70.958,3.437 71.417 C 3.195 71.875,2.924 72.362,2.834 72.500 C 2.506 73.002,1.521 75.270,1.313 76.000 C 1.196 76.412,1.045 76.789,0.977 76.836 C 0.220 77.372,-0.062 84.623,0.576 87.167 C 1.455 90.672,4.345 94.561,6.856 95.617 C 7.158 95.744,7.446 95.906,7.495 95.978 C 7.543 96.050,8.033 96.283,8.583 96.496 C 9.133 96.709,9.814 96.982,10.096 97.102 C 10.750 97.382,13.323 97.833,14.262 97.833 C 14.657 97.833,15.023 97.902,15.075 97.986 C 15.197 98.185,20.643 98.225,20.892 98.029 C 20.997 97.946,21.784 97.831,22.640 97.774 C 24.522 97.646,27.623 97.212,28.083 97.012 C 28.267 96.933,29.185 96.735,30.125 96.573 C 31.065 96.410,31.833 96.218,31.833 96.145 C 31.833 95.879,31.169 95.667,30.336 95.667 C 29.149 95.667,24.988 95.187,24.583 95.004 C 24.400 94.921,23.425 94.688,22.417 94.486 C 21.408 94.284,20.508 94.062,20.417 93.993 C 20.325 93.924,19.688 93.702,19.000 93.500 C 18.313 93.298,17.675 93.077,17.583 93.010 C 17.492 92.943,16.967 92.711,16.417 92.496 C 15.867 92.280,15.379 92.060,15.333 92.006 C 15.287 91.952,14.920 91.762,14.517 91.584 C 14.114 91.406,13.702 91.183,13.601 91.089 C 13.499 90.994,13.090 90.694,12.690 90.423 C 12.290 90.151,11.765 89.664,11.523 89.339 C 11.281 89.015,10.990 88.651,10.875 88.530 C 10.227 87.845,10.315 84.216,11.004 83.250 C 11.069 83.158,11.246 82.708,11.398 82.250 C 12.064 80.230,15.545 76.085,17.875 74.538 C 18.219 74.309,18.500 74.069,18.500 74.005 C 18.500 73.940,18.671 73.809,18.879 73.714 C 19.088 73.619,19.444 73.382,19.671 73.188 C 20.153 72.775,22.507 71.190,23.144 70.848 C 23.386 70.719,23.883 70.421,24.250 70.186 C 25.168 69.598,25.676 69.322,29.833 67.162 C 30.154 66.995,31.092 66.544,31.917 66.160 C 32.742 65.776,33.867 65.253,34.417 64.997 C 34.967 64.741,35.604 64.479,35.833 64.415 C 36.063 64.351,36.400 64.206,36.583 64.092 C 36.767 63.978,37.366 63.718,37.915 63.513 C 38.464 63.309,38.989 63.082,39.081 63.010 C 39.174 62.937,39.775 62.707,40.417 62.497 C 41.058 62.288,41.621 62.067,41.667 62.007 C 41.712 61.946,42.200 61.760,42.750 61.595 C 43.300 61.429,43.900 61.202,44.083 61.090 C 44.267 60.978,44.979 60.717,45.667 60.510 C 46.354 60.304,46.992 60.075,47.083 60.002 C 47.175 59.929,47.815 59.712,48.505 59.519 C 49.196 59.327,49.973 59.075,50.232 58.960 L 50.704 58.750 50.599 56.167 C 50.304 48.846,50.306 48.873,49.933 48.398 C 49.741 48.152,49.171 47.446,48.667 46.829 C 48.163 46.212,47.450 45.314,47.083 44.835 C 46.717 44.356,46.251 43.766,46.049 43.524 C 45.847 43.281,45.227 42.502,44.671 41.792 C 43.624 40.455,43.556 40.415,42.792 40.694 M205.106 47.542 C 204.960 51.276,204.889 51.427,202.646 52.748 C 199.733 54.464,196.259 53.434,196.090 50.806 C 196.087 50.744,196.027 50.638,195.958 50.569 C 195.786 50.397,195.801 49.707,195.978 49.597 C 196.058 49.547,196.168 49.283,196.223 49.009 C 196.350 48.377,197.258 47.774,198.500 47.498 C 199.004 47.386,199.642 47.194,199.917 47.071 C 200.192 46.949,201.052 46.690,201.829 46.495 C 202.605 46.300,203.318 46.090,203.412 46.029 C 203.630 45.886,204.682 45.540,204.968 45.517 C 205.140 45.504,205.169 45.926,205.106 47.542 M345.592 48.292 C 345.485 50.891,345.452 51.103,345.113 51.366 C 344.914 51.522,344.600 51.785,344.418 51.950 C 342.097 54.046,338.835 54.213,337.333 52.313 C 335.445 49.925,337.126 47.167,340.470 47.167 C 340.578 47.167,340.667 47.105,340.667 47.030 C 340.667 46.956,341.248 46.760,341.958 46.595 C 342.669 46.431,343.475 46.196,343.750 46.074 C 344.223 45.863,345.245 45.548,345.562 45.515 C 345.643 45.507,345.657 46.726,345.592 48.292 M80.417 49.164 C 80.142 49.238,79.327 49.432,78.606 49.595 L 77.294 49.892 77.392 50.738 C 77.446 51.203,77.533 52.333,77.585 53.250 C 77.637 54.167,77.715 55.198,77.759 55.542 L 77.837 56.167 71.364 56.167 L 64.891 56.167 64.610 57.792 C 64.455 58.685,64.329 59.585,64.331 59.792 L 64.333 60.167 71.054 60.167 L 77.776 60.167 77.715 61.542 C 77.609 63.973,77.141 68.076,76.942 68.317 C 76.837 68.446,76.774 68.596,76.802 68.651 C 76.859 68.759,76.795 69.181,76.390 71.333 C 76.243 72.112,76.060 72.831,75.982 72.930 C 75.904 73.029,75.779 73.404,75.704 73.763 L 75.568 74.417 68.034 74.460 L 60.500 74.503 60.500 70.529 C 60.500 68.344,60.453 66.509,60.396 66.451 C 60.273 66.328,59.333 66.784,59.333 66.966 C 59.333 67.034,58.996 67.275,58.583 67.500 C 58.171 67.725,57.833 67.967,57.833 68.036 C 57.833 68.106,57.533 68.211,57.167 68.269 L 56.500 68.376 56.500 71.440 L 56.500 74.503 48.966 74.460 L 41.432 74.417 41.296 73.763 C 41.221 73.404,41.096 73.029,41.018 72.930 C 40.894 72.773,40.720 71.968,40.222 69.250 C 40.154 68.883,40.114 68.527,40.133 68.458 C 40.151 68.390,40.092 68.333,40.000 68.333 C 39.908 68.333,39.833 68.141,39.833 67.905 C 39.833 67.423,39.524 67.446,38.583 67.998 C 38.308 68.160,37.693 68.419,37.216 68.574 C 36.672 68.750,36.311 68.973,36.248 69.172 C 36.128 69.552,36.783 73.349,37.009 73.575 C 37.096 73.662,37.167 73.906,37.167 74.117 L 37.167 74.500 31.281 74.500 C 25.737 74.500,25.377 74.518,25.057 74.816 C 24.871 74.989,24.470 75.260,24.167 75.417 C 23.863 75.574,23.533 75.769,23.432 75.851 C 23.332 75.933,22.669 76.428,21.958 76.952 C 20.699 77.880,20.345 78.448,20.837 78.752 C 20.930 78.810,21.199 79.236,21.434 79.700 C 21.669 80.164,21.931 80.628,22.016 80.730 C 22.102 80.833,22.548 81.479,23.009 82.167 C 24.059 83.733,24.494 84.327,24.917 84.768 C 25.100 84.959,25.550 85.505,25.917 85.979 C 28.352 89.133,34.290 93.953,38.000 95.788 C 38.229 95.901,38.529 96.067,38.667 96.156 C 39.157 96.474,41.262 97.452,41.917 97.666 C 42.283 97.786,42.733 97.977,42.917 98.091 C 43.100 98.206,43.700 98.426,44.250 98.582 C 44.800 98.738,45.325 98.924,45.417 98.997 C 45.508 99.070,46.333 99.294,47.250 99.495 C 48.167 99.697,49.067 99.930,49.250 100.013 C 51.570 101.069,66.356 101.066,67.750 100.010 C 67.842 99.940,68.404 99.784,69.000 99.662 C 69.596 99.540,70.708 99.229,71.471 98.970 C 72.235 98.712,72.947 98.499,73.055 98.498 C 73.162 98.498,73.625 98.312,74.083 98.087 C 74.542 97.862,74.978 97.675,75.052 97.672 C 75.127 97.669,75.983 97.273,76.955 96.792 C 80.069 95.250,79.768 95.421,82.250 93.776 C 84.084 92.561,84.161 92.503,85.833 91.107 C 87.490 89.725,90.452 86.800,91.167 85.842 C 91.396 85.535,91.735 85.126,91.920 84.934 C 92.639 84.185,94.572 81.395,94.741 80.861 C 94.890 80.393,94.499 80.374,94.086 80.830 C 92.918 82.121,89.772 82.083,88.266 80.759 C 87.560 80.139,87.523 80.160,85.728 82.215 C 83.725 84.506,81.651 86.324,78.654 88.417 C 77.441 89.263,76.808 89.627,75.167 90.422 C 74.662 90.666,74.212 90.923,74.167 90.992 C 74.121 91.062,73.783 91.215,73.417 91.333 C 73.050 91.452,72.375 91.717,71.917 91.924 C 71.219 92.239,69.445 92.833,69.203 92.833 C 69.164 92.833,69.845 92.131,70.715 91.272 C 71.585 90.413,72.435 89.494,72.604 89.230 C 72.773 88.966,73.043 88.652,73.205 88.532 C 73.367 88.412,73.500 88.244,73.500 88.159 C 73.500 88.073,73.744 87.670,74.042 87.263 C 75.056 85.877,77.665 81.087,77.666 80.608 C 77.666 80.530,77.870 80.024,78.118 79.483 L 78.569 78.500 82.633 78.500 L 86.696 78.500 86.605 77.875 C 86.555 77.531,86.469 76.837,86.415 76.333 C 86.360 75.829,86.276 75.210,86.228 74.958 L 86.140 74.500 82.987 74.500 L 79.833 74.500 79.833 74.117 C 79.833 73.906,79.899 73.662,79.980 73.575 C 80.120 73.424,80.540 71.434,80.771 69.833 C 80.830 69.421,80.937 69.008,81.009 68.916 C 81.175 68.703,81.812 62.082,81.831 60.375 C 81.833 60.232,82.143 60.167,82.820 60.167 C 84.210 60.167,84.262 60.130,84.193 59.206 C 84.161 58.772,84.067 58.345,83.984 58.258 C 83.901 58.171,83.833 57.784,83.833 57.397 C 83.833 56.264,83.746 56.167,82.732 56.167 C 81.864 56.167,81.833 56.151,81.830 55.708 C 81.825 55.133,81.545 51.429,81.402 50.042 C 81.290 48.955,81.269 48.936,80.417 49.164 M38.797 79.325 C 39.005 79.779,39.277 80.435,39.402 80.783 C 39.631 81.425,41.011 84.144,41.597 85.110 C 41.773 85.400,42.152 86.040,42.439 86.532 C 42.727 87.025,43.083 87.528,43.231 87.651 C 43.379 87.774,43.500 87.980,43.500 88.109 C 43.500 88.238,43.606 88.385,43.736 88.434 C 43.866 88.484,44.178 88.838,44.431 89.221 C 44.683 89.604,45.559 90.573,46.379 91.375 C 47.199 92.177,47.837 92.833,47.798 92.833 C 47.556 92.833,45.783 92.240,45.083 91.924 C 44.625 91.717,43.950 91.452,43.583 91.333 C 43.217 91.215,42.879 91.062,42.833 90.992 C 42.788 90.923,42.337 90.669,41.833 90.429 C 41.329 90.189,40.574 89.788,40.155 89.538 C 38.111 88.318,37.738 88.082,37.583 87.911 C 37.492 87.810,37.205 87.595,36.946 87.434 C 36.686 87.274,36.280 86.979,36.043 86.779 C 33.913 84.988,32.082 83.285,31.525 82.578 C 31.330 82.330,30.830 81.753,30.413 81.295 C 29.997 80.837,29.544 80.246,29.407 79.981 C 29.270 79.716,29.097 79.500,29.022 79.500 C 28.904 79.500,28.500 78.784,28.500 78.575 C 28.500 78.534,30.732 78.500,33.459 78.500 L 38.419 78.500 38.797 79.325 M56.500 85.500 C 56.500 89.350,56.458 92.500,56.407 92.500 C 56.152 92.500,54.728 92.102,54.583 91.990 C 54.491 91.919,54.019 91.705,53.534 91.513 C 53.048 91.322,52.561 91.092,52.451 91.003 C 52.340 90.913,51.753 90.468,51.145 90.014 C 48.315 87.898,46.032 84.984,44.087 81.000 C 43.662 80.129,43.209 79.210,43.082 78.958 L 42.849 78.500 49.674 78.500 L 56.500 78.500 56.500 85.500 M73.920 78.958 C 73.793 79.210,73.367 80.092,72.973 80.917 C 72.580 81.742,72.068 82.717,71.837 83.083 C 71.606 83.450,71.342 83.871,71.250 84.019 C 69.788 86.381,67.882 88.499,65.855 90.014 C 65.247 90.468,64.660 90.913,64.549 91.003 C 64.439 91.092,63.952 91.322,63.466 91.513 C 62.981 91.705,62.509 91.919,62.417 91.990 C 62.272 92.102,60.848 92.500,60.593 92.500 C 60.542 92.500,60.500 89.350,60.500 85.500 L 60.500 78.500 67.326 78.500 L 74.151 78.500 73.920 78.958 " stroke="none" fill="#fc4334" fill-rule="evenodd"></path><path id="path1" d="M259.917 69.000 C 259.860 69.092,259.682 69.167,259.520 69.167 C 259.012 69.167,257.526 69.665,257.270 69.921 C 257.134 70.056,256.945 70.167,256.849 70.167 C 256.547 70.167,254.914 71.911,254.575 72.596 C 253.996 73.766,254.109 75.940,254.800 76.920 L 255.350 77.700 255.020 78.332 C 253.788 80.697,254.321 84.797,255.865 84.828 C 256.020 84.831,256.193 84.908,256.250 85.000 C 256.377 85.206,257.946 85.222,258.072 85.019 C 258.122 84.938,258.422 84.822,258.740 84.763 C 259.869 84.551,261.710 82.918,263.076 80.917 C 263.514 80.275,263.924 79.712,263.987 79.667 C 264.049 79.621,264.335 79.232,264.621 78.802 C 265.423 77.598,265.882 76.968,266.292 76.508 C 266.498 76.276,266.667 76.045,266.667 75.995 C 266.667 75.795,267.944 74.558,268.375 74.341 C 268.627 74.214,268.833 74.042,268.833 73.959 C 268.833 73.876,269.077 73.821,269.375 73.837 C 270.274 73.887,270.333 73.855,270.333 73.328 C 270.333 72.960,270.232 72.782,269.958 72.672 C 269.752 72.589,269.650 72.516,269.731 72.511 C 269.980 72.493,271.241 72.881,271.408 73.028 C 271.635 73.227,273.833 73.201,273.833 73.000 C 273.833 72.908,273.949 72.833,274.091 72.833 C 274.473 72.833,275.167 72.011,275.167 71.559 C 275.167 71.343,275.109 71.167,275.040 71.167 C 274.970 71.167,274.838 70.998,274.748 70.792 C 274.552 70.346,273.833 70.173,273.833 70.572 C 273.833 70.716,273.900 70.833,273.981 70.833 C 274.260 70.833,274.304 71.505,274.043 71.767 C 273.525 72.284,271.974 72.434,271.667 71.996 C 271.621 71.931,271.133 71.748,270.583 71.591 C 270.033 71.433,269.358 71.171,269.083 71.008 C 268.808 70.846,268.190 70.575,267.708 70.407 C 267.227 70.238,266.833 70.049,266.833 69.986 C 266.833 69.814,265.234 69.326,264.312 69.216 C 263.865 69.164,263.500 69.056,263.500 68.977 C 263.500 68.774,260.043 68.796,259.917 69.000 M214.333 70.334 C 213.172 70.533,212.167 70.832,212.167 70.980 C 212.167 71.053,211.872 71.210,211.512 71.329 C 210.448 71.681,208.318 73.696,207.283 75.333 C 204.822 79.222,207.512 82.962,211.554 81.273 C 212.977 80.679,214.131 78.870,213.697 77.916 C 213.380 77.221,212.830 77.361,212.860 78.129 C 212.936 80.060,209.774 81.644,208.151 80.489 C 207.179 79.797,207.670 77.314,209.167 75.347 C 209.833 74.471,211.701 72.657,212.205 72.397 C 212.459 72.266,212.667 72.104,212.667 72.037 C 212.668 71.884,213.913 71.372,214.628 71.231 C 214.928 71.172,215.214 71.058,215.263 70.978 C 215.791 70.125,217.833 71.326,217.833 72.489 C 217.833 73.160,217.256 75.167,217.014 75.333 C 216.948 75.379,216.715 75.792,216.496 76.250 C 216.278 76.708,215.964 77.229,215.799 77.406 C 215.635 77.584,215.500 77.814,215.500 77.917 C 215.500 78.020,215.363 78.250,215.197 78.429 C 215.030 78.609,214.674 79.115,214.405 79.555 C 214.136 79.995,213.713 80.669,213.464 81.052 C 212.226 82.960,212.058 83.630,212.727 83.988 C 213.006 84.137,213.212 84.149,213.435 84.028 C 213.608 83.934,213.881 83.817,214.042 83.767 C 214.223 83.711,214.333 83.511,214.333 83.239 C 214.333 82.808,214.746 81.910,215.095 81.584 C 215.193 81.492,215.404 81.205,215.564 80.947 C 215.725 80.689,215.968 80.351,216.106 80.197 C 216.243 80.043,216.894 79.239,217.553 78.410 C 220.079 75.232,223.500 71.875,223.500 72.575 C 223.500 72.958,223.104 74.167,222.979 74.167 C 222.920 74.167,222.699 74.598,222.488 75.125 C 222.277 75.652,222.057 76.121,221.999 76.167 C 221.888 76.254,221.026 77.779,220.443 78.917 C 220.256 79.283,220.055 79.621,219.997 79.667 C 219.939 79.712,219.710 80.087,219.488 80.500 C 219.265 80.912,219.036 81.287,218.978 81.333 C 218.156 81.981,217.994 83.333,218.738 83.333 C 219.317 83.333,219.550 83.179,220.000 82.494 C 221.089 80.838,224.969 76.656,227.337 74.583 L 227.718 74.250 227.401 74.747 C 227.226 75.021,226.983 75.358,226.861 75.497 C 226.484 75.925,225.387 77.729,225.262 78.125 C 225.197 78.331,225.081 78.500,225.004 78.500 C 224.927 78.500,224.689 78.987,224.475 79.583 C 224.261 80.179,224.036 80.667,223.975 80.667 C 223.706 80.667,223.446 82.995,223.641 83.648 C 223.932 84.619,225.246 84.709,226.498 83.843 C 226.728 83.684,227.048 83.507,227.208 83.449 C 227.369 83.391,227.500 83.191,227.500 83.005 C 227.500 82.557,226.875 82.554,226.044 83.000 C 225.021 83.548,224.254 82.885,224.974 82.075 C 225.051 81.988,225.290 81.467,225.505 80.917 C 225.720 80.367,225.947 79.879,226.009 79.833 C 226.071 79.787,226.292 79.412,226.500 79.000 C 226.708 78.587,226.935 78.212,227.004 78.167 C 227.073 78.121,227.296 77.765,227.499 77.375 C 227.701 76.985,227.918 76.667,227.981 76.667 C 228.044 76.667,228.217 76.460,228.366 76.207 C 228.612 75.791,229.489 74.767,230.958 73.182 C 231.537 72.557,231.624 72.073,231.317 71.192 C 231.015 70.325,230.156 70.581,228.638 71.991 C 228.484 72.133,228.077 72.475,227.733 72.750 C 226.810 73.487,226.086 74.143,224.434 75.736 C 223.049 77.072,222.456 77.552,223.028 76.875 C 223.411 76.421,224.650 73.812,224.769 73.208 C 224.827 72.910,224.941 72.667,225.021 72.667 C 225.260 72.667,225.186 71.662,224.929 71.405 C 224.130 70.607,222.761 71.243,220.488 73.469 C 218.571 75.346,218.384 75.433,218.977 74.167 C 219.378 73.310,219.352 71.314,218.933 70.852 C 218.353 70.210,216.365 69.987,214.333 70.334 M265.125 70.524 C 265.790 70.721,266.333 70.940,266.333 71.011 C 266.333 71.082,266.727 71.271,267.208 71.430 C 267.690 71.590,268.421 71.894,268.833 72.106 L 269.583 72.491 269.053 72.496 C 268.207 72.503,267.756 72.752,266.732 73.775 C 265.854 74.654,264.337 76.664,264.330 76.960 C 264.329 77.028,264.141 77.260,263.914 77.476 C 263.686 77.692,263.500 77.959,263.500 78.069 C 263.500 78.180,263.354 78.427,263.176 78.618 C 262.998 78.809,262.716 79.219,262.550 79.529 C 262.384 79.840,262.080 80.274,261.874 80.495 C 261.668 80.716,261.500 80.981,261.500 81.085 C 261.500 81.188,261.331 81.430,261.125 81.622 C 260.919 81.814,260.383 82.347,259.935 82.806 C 259.486 83.266,258.943 83.687,258.726 83.741 C 258.510 83.795,258.333 83.909,258.333 83.993 C 258.333 84.652,256.128 84.330,255.680 83.606 C 255.162 82.766,255.366 79.809,255.976 79.333 C 256.035 79.287,256.196 79.030,256.333 78.762 C 256.581 78.278,256.598 78.274,258.083 78.262 C 259.468 78.251,259.583 78.224,259.583 77.917 C 259.583 77.626,259.455 77.577,258.583 77.533 C 258.033 77.505,257.518 77.417,257.438 77.337 C 257.299 77.199,258.874 75.500,259.142 75.500 C 259.213 75.500,259.430 75.351,259.625 75.170 C 260.342 74.502,262.061 74.403,262.256 75.018 C 262.491 75.759,260.598 78.667,259.881 78.667 C 259.757 78.667,259.615 78.774,259.565 78.905 C 259.332 79.512,257.167 79.749,257.167 79.167 C 257.167 78.761,256.585 78.706,256.434 79.097 C 256.214 79.671,256.330 80.486,256.656 80.661 C 257.314 81.013,259.580 80.587,259.777 80.074 C 259.827 79.942,259.960 79.833,260.072 79.833 C 260.465 79.833,262.167 77.921,262.664 76.922 C 263.774 74.690,263.159 73.582,260.878 73.701 C 260.105 73.742,259.422 73.846,259.361 73.934 C 259.300 74.021,258.927 74.235,258.531 74.410 C 257.808 74.729,256.567 75.796,256.198 76.417 C 256.003 76.746,255.997 76.746,255.750 76.426 C 255.333 75.886,255.545 73.333,256.008 73.333 C 256.095 73.333,256.167 73.231,256.167 73.106 C 256.167 72.813,257.665 71.409,258.138 71.259 C 258.337 71.196,258.500 71.080,258.500 71.002 C 258.500 70.857,259.748 70.408,260.500 70.282 C 261.779 70.068,263.974 70.182,265.125 70.524 M151.208 70.699 C 150.727 70.787,150.333 70.928,150.333 71.013 C 150.333 71.097,150.231 71.167,150.106 71.167 C 149.744 71.167,148.167 71.863,148.167 72.022 C 148.167 72.102,148.069 72.167,147.950 72.167 C 147.590 72.167,146.317 73.542,146.217 74.038 C 146.167 74.292,146.059 74.500,145.979 74.500 C 145.529 74.500,145.850 76.005,146.422 76.578 C 147.283 77.438,148.084 77.316,147.411 76.426 C 146.595 75.348,148.189 73.248,150.475 72.391 C 150.901 72.231,151.287 72.051,151.333 71.991 C 151.727 71.475,156.163 71.230,157.417 71.655 C 158.685 72.085,160.086 73.651,160.303 74.882 C 160.443 75.679,160.282 77.485,160.057 77.644 C 159.975 77.703,159.761 78.087,159.581 78.500 C 159.019 79.791,157.548 81.510,156.792 81.760 C 156.631 81.813,156.500 81.917,156.500 81.991 C 156.500 82.065,156.031 82.297,155.458 82.507 C 154.885 82.716,154.340 82.945,154.247 83.015 C 153.573 83.524,149.333 83.534,149.333 83.028 C 149.333 82.964,149.171 82.838,148.972 82.748 C 148.153 82.375,148.218 82.113,149.433 80.898 C 150.595 79.736,151.833 78.300,151.833 78.115 C 151.833 78.060,152.002 77.828,152.208 77.600 C 152.415 77.371,152.771 76.950,153.000 76.664 C 153.859 75.593,155.613 73.929,156.458 73.386 C 157.373 72.798,157.532 72.438,157.042 72.065 C 156.702 71.807,155.333 71.755,155.333 72.000 C 155.333 72.092,155.240 72.167,155.125 72.168 C 154.820 72.169,153.364 73.712,151.781 75.710 C 151.581 75.964,151.304 76.304,151.167 76.466 C 151.029 76.629,150.521 77.284,150.038 77.922 C 149.555 78.561,148.937 79.325,148.663 79.620 C 148.390 79.916,148.167 80.217,148.167 80.289 C 148.167 80.361,148.022 80.510,147.845 80.621 C 147.542 80.810,147.510 80.746,147.322 79.578 C 147.211 78.893,147.056 78.333,146.977 78.333 C 146.898 78.333,146.833 78.230,146.833 78.104 C 146.833 76.575,145.065 78.093,144.430 80.167 C 144.275 80.671,144.078 81.214,143.991 81.373 C 142.980 83.228,144.806 84.501,146.691 83.254 C 147.068 83.004,147.423 82.868,147.480 82.951 C 147.653 83.203,148.773 83.833,149.047 83.833 C 149.189 83.833,149.337 83.927,149.375 84.042 C 149.468 84.319,153.611 84.333,154.184 84.057 C 154.403 83.951,155.071 83.739,155.667 83.585 C 156.262 83.431,157.030 83.124,157.371 82.903 C 157.713 82.681,158.064 82.500,158.150 82.500 C 158.364 82.500,160.667 80.235,160.667 80.024 C 160.667 79.932,160.775 79.749,160.908 79.616 C 161.358 79.166,161.833 77.397,161.833 76.174 C 161.833 71.870,157.378 69.574,151.208 70.699 M355.990 72.595 C 355.755 72.720,355.461 73.012,355.337 73.244 C 355.212 73.477,355.053 73.667,354.984 73.667 C 354.914 73.667,354.683 74.023,354.470 74.458 C 354.257 74.894,354.031 75.274,353.968 75.302 C 353.904 75.331,353.768 75.609,353.666 75.920 C 353.481 76.480,353.468 76.486,352.365 76.534 C 350.728 76.606,350.582 77.657,352.208 77.664 C 352.552 77.666,352.833 77.701,352.833 77.744 C 352.833 77.911,352.141 79.617,351.850 80.167 C 351.680 80.487,351.446 81.050,351.329 81.417 C 351.213 81.783,351.064 82.121,350.998 82.167 C 350.932 82.212,350.708 82.587,350.500 83.000 C 349.809 84.372,348.739 85.576,348.042 85.767 C 347.835 85.823,347.667 85.936,347.667 86.018 C 347.667 86.610,346.658 85.990,346.327 85.195 C 346.097 84.644,345.759 84.834,345.699 85.548 C 345.660 86.007,345.735 86.226,346.009 86.452 C 346.208 86.616,346.469 86.844,346.590 86.958 C 346.945 87.295,347.720 87.199,348.619 86.708 C 349.343 86.312,349.710 85.955,350.895 84.494 C 351.009 84.353,351.282 83.866,351.501 83.411 C 351.720 82.956,351.981 82.501,352.080 82.399 C 352.179 82.298,352.406 81.886,352.584 81.483 C 352.762 81.080,352.956 80.712,353.016 80.667 C 353.076 80.621,353.300 80.171,353.514 79.667 C 353.729 79.162,354.000 78.651,354.119 78.530 C 354.237 78.409,354.333 78.201,354.333 78.067 C 354.333 77.769,354.815 77.582,355.966 77.434 L 356.849 77.320 356.607 77.785 C 356.474 78.041,356.211 78.426,356.023 78.642 C 355.835 78.858,355.550 79.383,355.391 79.809 C 355.231 80.235,355.026 80.634,354.934 80.697 C 354.617 80.913,354.721 82.551,355.079 82.958 C 355.728 83.699,357.272 83.336,358.667 82.113 L 359.250 81.601 359.306 82.009 C 359.531 83.635,361.221 83.651,363.007 82.046 L 363.833 81.302 363.833 81.817 C 363.833 83.174,365.278 83.584,366.832 82.667 L 367.679 82.168 368.262 82.751 C 368.937 83.426,370.162 83.560,371.083 83.060 C 371.358 82.910,371.789 82.681,372.040 82.549 C 372.291 82.418,372.553 82.222,372.623 82.114 C 372.693 82.005,372.976 81.759,373.252 81.566 L 373.754 81.215 373.695 81.839 C 373.570 83.146,374.404 83.604,375.168 82.648 C 376.508 80.974,377.614 79.678,378.141 79.167 L 378.742 78.583 378.186 79.572 C 377.485 80.817,377.286 82.320,377.752 82.836 C 378.057 83.173,379.333 83.322,379.333 83.020 C 379.333 82.940,379.564 82.778,379.846 82.661 C 380.128 82.544,380.474 82.273,380.615 82.058 C 380.932 81.574,381.167 81.555,381.167 82.013 C 381.167 83.042,383.895 83.897,384.479 83.051 C 384.537 82.968,384.929 82.701,385.351 82.457 L 386.119 82.014 386.302 82.415 C 386.730 83.355,388.827 83.697,389.575 82.949 C 389.730 82.794,389.934 82.667,390.027 82.667 C 390.487 82.667,393.333 79.912,393.333 79.467 C 393.333 78.925,392.757 79.146,391.910 80.014 C 389.284 82.704,387.046 83.334,387.573 81.233 C 387.645 80.944,387.789 80.833,388.091 80.833 C 388.571 80.833,390.348 80.239,390.489 80.031 C 390.541 79.954,390.827 79.750,391.125 79.577 C 391.423 79.403,391.667 79.214,391.667 79.156 C 391.667 79.098,391.817 78.878,392.000 78.667 C 392.187 78.451,392.333 78.043,392.333 77.736 C 392.333 75.948,389.875 76.342,387.896 78.448 C 386.789 79.628,386.719 79.716,386.597 80.112 C 386.492 80.455,385.850 81.074,384.651 81.991 C 384.271 82.282,383.899 82.401,383.351 82.408 L 382.583 82.417 382.595 81.603 C 382.602 81.103,382.700 80.717,382.847 80.603 C 382.980 80.500,383.229 80.192,383.402 79.917 C 384.120 78.772,385.639 77.793,385.529 78.545 C 385.404 79.398,386.208 79.610,386.909 78.909 C 387.419 78.399,387.494 77.352,387.054 76.911 C 386.219 76.076,384.212 76.932,382.500 78.853 C 381.630 79.830,380.162 81.310,379.480 81.897 C 377.742 83.394,378.914 80.589,381.079 78.072 C 382.249 76.712,380.704 75.618,379.462 76.928 C 379.254 77.148,379.002 77.329,378.903 77.330 C 378.803 77.332,378.531 77.540,378.298 77.792 C 378.065 78.044,377.483 78.579,377.006 78.980 L 376.138 79.710 376.489 79.022 C 376.682 78.643,376.895 78.333,376.962 78.332 C 377.145 78.330,377.500 77.485,377.500 77.050 C 377.500 76.382,376.511 76.519,375.904 77.271 C 375.636 77.603,375.229 78.085,375.000 78.343 C 374.771 78.601,374.321 79.156,374.000 79.577 C 373.679 79.998,373.055 80.621,372.612 80.963 C 372.170 81.304,371.681 81.696,371.526 81.833 C 370.759 82.516,369.617 82.697,369.341 82.180 C 369.062 81.660,369.308 80.833,369.741 80.833 C 370.326 80.833,371.748 80.363,372.127 80.043 C 372.319 79.882,372.687 79.632,372.946 79.487 C 373.623 79.110,374.508 77.333,374.019 77.333 C 373.938 77.333,373.833 77.183,373.785 77.000 C 373.674 76.577,371.938 76.513,371.409 76.913 C 369.898 78.057,369.333 78.528,369.333 78.646 C 369.333 78.722,369.108 79.019,368.833 79.307 C 368.558 79.595,368.333 79.937,368.333 80.068 C 368.333 80.391,367.158 81.594,366.701 81.739 C 366.499 81.803,366.333 81.918,366.333 81.993 C 366.333 82.192,365.527 82.364,365.152 82.246 C 364.821 82.140,364.661 80.833,364.980 80.833 C 365.060 80.833,365.224 80.590,365.345 80.292 C 365.549 79.784,366.609 78.145,367.167 77.472 C 370.191 73.828,370.401 73.333,368.929 73.333 C 368.524 73.333,367.167 74.578,367.167 74.950 C 367.167 75.069,367.093 75.167,367.003 75.167 C 366.914 75.167,366.686 75.468,366.498 75.837 C 366.205 76.411,366.111 76.482,365.839 76.337 C 365.108 75.945,363.060 76.403,362.461 77.092 C 362.266 77.317,362.026 77.500,361.927 77.500 C 361.759 77.500,361.305 77.981,360.083 79.455 C 359.260 80.447,358.324 81.330,357.814 81.594 C 357.549 81.730,357.333 81.909,357.333 81.991 C 357.333 82.192,356.217 82.551,356.003 82.419 C 355.790 82.287,355.778 81.667,355.989 81.667 C 356.074 81.667,356.195 81.498,356.257 81.292 C 356.318 81.085,356.699 80.492,357.101 79.972 C 357.504 79.453,357.833 78.947,357.833 78.847 C 357.833 78.748,357.909 78.667,358.002 78.667 C 358.160 78.667,358.831 77.708,358.833 77.481 C 358.836 76.929,357.906 76.510,356.574 76.465 L 355.182 76.417 355.495 75.717 C 356.131 74.300,357.442 73.340,357.727 74.083 C 358.035 74.885,358.830 74.006,358.605 73.112 C 358.424 72.388,356.935 72.094,355.990 72.595 M325.583 73.009 C 324.256 74.274,324.096 74.465,323.324 75.708 L 322.833 76.500 320.990 76.500 L 319.148 76.500 319.407 76.130 C 319.928 75.386,319.676 74.667,318.895 74.667 C 318.609 74.667,317.634 75.585,317.356 76.116 C 317.202 76.410,316.992 76.493,316.290 76.533 C 315.332 76.588,314.887 77.508,315.759 77.632 C 316.544 77.745,314.614 80.663,313.174 81.542 C 312.849 81.741,312.508 81.996,312.417 82.109 C 312.145 82.444,311.351 82.573,311.246 82.299 C 311.152 82.054,311.596 80.923,311.955 80.495 C 312.068 80.360,312.551 79.725,313.028 79.083 C 313.506 78.442,313.957 77.892,314.032 77.861 C 314.469 77.681,313.754 76.833,313.165 76.833 C 312.755 76.833,311.631 77.933,311.318 78.642 C 311.190 78.930,311.034 79.167,310.971 79.167 C 310.436 79.167,309.945 82.466,310.390 83.074 C 310.645 83.423,312.511 83.382,312.630 83.025 C 312.666 82.920,312.787 82.833,312.901 82.833 C 313.014 82.833,313.412 82.572,313.785 82.252 L 314.464 81.672 314.566 82.217 C 314.722 83.050,315.426 83.394,316.676 83.249 C 317.221 83.186,317.667 83.066,317.667 82.984 C 317.667 82.901,317.782 82.833,317.923 82.833 C 318.064 82.833,318.484 82.678,318.855 82.489 C 319.515 82.152,319.527 82.152,319.426 82.472 C 319.317 82.813,319.697 83.333,320.054 83.333 C 320.163 83.333,320.514 82.982,320.834 82.553 C 321.754 81.321,324.230 78.897,324.956 78.519 C 325.300 78.339,325.292 78.378,324.843 79.044 C 324.576 79.439,324.306 79.967,324.244 80.216 C 324.181 80.466,324.063 80.711,323.982 80.761 C 323.379 81.134,324.321 83.167,325.097 83.167 C 325.872 83.167,328.634 80.782,328.909 79.875 C 329.122 79.173,328.449 79.457,327.411 80.507 C 326.864 81.061,326.163 81.664,325.852 81.848 L 325.287 82.183 325.375 81.526 C 325.452 80.952,326.517 79.131,327.095 78.585 C 327.880 77.843,328.065 76.731,327.429 76.571 C 326.737 76.398,326.375 76.569,323.948 78.213 C 323.416 78.574,322.934 78.823,322.879 78.768 C 322.823 78.712,322.858 78.667,322.956 78.667 C 323.054 78.667,323.285 78.410,323.470 78.097 C 323.655 77.784,323.929 77.390,324.080 77.222 C 324.616 76.624,325.613 75.245,325.717 74.958 C 325.775 74.798,325.891 74.667,325.975 74.667 C 326.230 74.667,326.544 73.698,326.432 73.253 C 326.325 72.826,325.903 72.704,325.583 73.009 M297.266 73.854 C 296.853 74.243,296.430 74.767,296.326 75.018 C 296.221 75.270,296.031 75.517,295.901 75.566 C 295.772 75.616,295.667 75.740,295.667 75.842 C 295.667 75.943,295.415 76.415,295.108 76.888 C 294.800 77.362,294.299 78.200,293.994 78.750 C 293.443 79.743,291.693 81.583,291.128 81.762 C 290.966 81.814,290.833 81.914,290.833 81.984 C 290.833 82.415,289.411 82.632,288.925 82.277 C 288.464 81.939,288.695 80.833,289.227 80.833 C 289.807 80.833,291.287 80.355,291.564 80.079 C 291.699 79.944,291.873 79.833,291.950 79.833 C 292.309 79.833,293.336 78.767,293.480 78.244 C 294.068 76.116,291.321 76.096,289.299 78.214 C 286.831 80.800,286.862 83.333,289.361 83.333 C 289.890 83.333,290.408 83.241,290.533 83.125 C 290.655 83.010,291.111 82.731,291.545 82.503 C 291.978 82.276,292.333 82.041,292.333 81.981 C 292.333 81.921,292.502 81.761,292.708 81.626 C 293.072 81.388,293.085 81.399,293.128 81.982 C 293.213 83.148,294.603 83.540,296.002 82.793 C 296.980 82.271,298.833 80.367,298.833 79.883 C 298.833 79.264,298.475 79.432,297.333 80.583 C 296.743 81.179,296.194 81.667,296.114 81.667 C 296.035 81.667,295.779 81.817,295.545 82.000 C 294.168 83.083,293.915 81.680,295.149 79.804 C 295.530 79.224,295.934 78.610,296.046 78.438 C 296.626 77.550,298.207 75.404,298.887 74.581 C 300.032 73.196,298.632 72.569,297.266 73.854 M165.042 75.083 C 164.746 75.419,164.783 75.716,165.173 76.135 C 166.001 77.024,167.329 76.084,166.601 75.125 C 166.332 74.770,165.340 74.743,165.042 75.083 M170.390 75.708 C 169.857 76.190,168.275 77.723,166.872 79.115 C 165.470 80.508,164.175 81.694,163.995 81.752 C 163.814 81.809,163.667 81.917,163.667 81.991 C 163.667 82.259,162.663 82.563,162.457 82.357 C 162.203 82.103,162.571 81.061,163.107 80.519 C 163.323 80.300,163.500 80.056,163.500 79.977 C 163.500 79.898,163.631 79.698,163.792 79.532 C 165.251 78.027,165.481 76.833,164.312 76.833 C 163.872 76.833,162.657 78.042,162.312 78.821 C 162.187 79.103,162.039 79.333,161.982 79.333 C 161.466 79.333,161.035 82.522,161.479 83.057 C 162.097 83.803,164.039 83.140,165.592 81.653 L 166.100 81.166 166.452 82.000 C 166.665 82.502,166.910 82.833,167.069 82.833 C 167.214 82.833,167.333 82.908,167.333 83.000 C 167.333 83.093,167.778 83.167,168.333 83.167 C 168.883 83.167,169.334 83.110,169.334 83.042 C 169.335 82.904,170.487 82.411,171.208 82.239 C 171.460 82.180,171.667 82.080,171.667 82.018 C 171.667 81.957,171.892 81.821,172.167 81.718 C 172.650 81.535,172.667 81.545,172.667 82.008 C 172.667 83.064,174.889 83.882,175.699 83.125 C 175.822 83.010,176.221 82.768,176.586 82.587 C 176.951 82.405,177.434 82.068,177.658 81.837 L 178.067 81.417 178.171 81.917 C 178.618 84.052,180.632 83.506,182.941 80.623 C 183.293 80.183,183.667 79.353,183.667 79.008 C 183.667 78.820,183.773 78.667,183.903 78.667 C 184.033 78.667,184.254 78.623,184.394 78.569 C 184.700 78.452,184.517 79.269,183.962 80.495 C 183.209 82.160,183.453 83.167,184.609 83.167 C 184.916 83.167,185.167 83.100,185.167 83.018 C 185.167 82.936,185.469 82.748,185.839 82.601 C 186.209 82.453,186.554 82.219,186.607 82.082 C 186.659 81.945,186.789 81.833,186.895 81.833 C 187.098 81.833,189.358 79.711,189.904 79.008 C 191.142 77.413,190.959 75.408,189.557 75.220 C 188.653 75.099,188.504 75.381,189.154 75.988 C 189.709 76.507,189.797 77.014,189.466 77.784 C 189.241 78.306,187.137 80.500,186.862 80.500 C 186.765 80.500,186.588 80.631,186.468 80.792 C 186.348 80.952,186.011 81.216,185.719 81.378 L 185.188 81.673 185.344 81.170 C 185.430 80.893,185.574 80.428,185.664 80.137 C 185.754 79.845,185.890 79.564,185.966 79.512 C 186.213 79.342,186.863 77.380,186.806 76.976 C 186.723 76.393,185.681 76.408,185.387 76.997 C 185.216 77.340,184.473 77.768,183.958 77.821 C 183.890 77.828,183.833 77.548,183.833 77.200 C 183.833 75.482,181.790 75.836,180.083 77.848 C 179.625 78.389,179.226 78.944,179.196 79.082 C 179.166 79.220,179.075 79.333,178.992 79.333 C 178.909 79.333,178.733 79.540,178.601 79.792 C 178.468 80.044,177.967 80.550,177.488 80.917 C 177.008 81.283,176.495 81.696,176.347 81.833 C 175.688 82.447,174.433 82.700,174.033 82.300 C 173.813 82.079,173.761 81.393,173.958 81.306 C 174.027 81.275,174.223 80.975,174.393 80.640 C 174.803 79.834,175.756 78.834,176.583 78.343 C 176.950 78.125,177.156 78.049,177.042 78.173 C 176.525 78.736,177.088 79.443,177.892 79.241 C 178.570 79.071,178.962 77.844,178.622 76.957 C 178.485 76.601,176.661 76.537,176.304 76.875 C 176.182 76.990,175.872 77.192,175.615 77.325 C 175.357 77.459,174.509 78.261,173.731 79.109 C 171.095 81.981,169.973 82.074,171.036 79.333 C 171.089 79.196,171.253 78.564,171.401 77.928 C 171.554 77.268,171.811 76.641,172.001 76.463 C 172.370 76.119,172.442 75.342,172.133 75.033 C 171.769 74.669,171.367 74.824,170.390 75.708 M197.671 75.365 C 197.486 75.668,197.333 76.029,197.331 76.167 C 197.318 76.989,194.148 80.846,192.875 81.589 C 192.577 81.763,192.333 81.955,192.333 82.016 C 192.333 82.590,190.442 82.599,190.361 82.025 C 190.239 81.159,190.444 80.884,191.295 80.771 C 192.264 80.642,194.061 79.620,194.554 78.917 C 194.747 78.642,194.964 78.392,195.036 78.361 C 195.276 78.259,195.171 77.342,194.880 77.002 C 194.478 76.533,193.049 76.532,192.455 77.000 C 192.221 77.183,191.963 77.333,191.879 77.333 C 191.491 77.333,189.530 79.690,189.317 80.413 C 189.194 80.827,189.035 81.167,188.964 81.167 C 188.715 81.167,188.835 82.164,189.125 82.517 C 189.748 83.272,189.866 83.333,190.704 83.333 C 192.035 83.333,193.143 82.682,195.037 80.786 C 195.934 79.889,196.667 79.096,196.667 79.024 C 196.667 78.952,196.892 78.641,197.167 78.333 C 197.442 78.025,197.667 77.862,197.667 77.970 C 197.667 78.078,197.779 78.167,197.917 78.167 C 198.195 78.167,198.260 78.441,198.002 78.528 C 197.302 78.763,196.924 82.112,197.517 82.824 C 198.485 83.988,203.333 81.512,203.333 79.854 C 203.333 79.262,202.845 79.445,201.945 80.375 C 198.509 83.924,196.740 82.107,200.073 78.454 C 200.535 77.947,200.757 77.309,200.607 76.917 C 200.484 76.597,199.562 76.587,199.383 76.903 C 199.208 77.215,198.333 77.440,198.333 77.174 C 198.333 77.066,198.526 76.725,198.762 76.416 C 199.372 75.616,199.277 74.935,198.545 74.865 C 198.090 74.821,197.956 74.897,197.671 75.365 M236.665 75.375 C 236.483 75.673,236.334 76.023,236.334 76.152 C 236.334 76.282,236.093 76.769,235.800 77.235 C 235.290 78.047,234.977 78.459,233.958 79.660 C 233.706 79.958,233.500 80.343,233.500 80.517 C 233.500 80.993,234.085 80.909,234.491 80.375 C 235.563 78.963,236.667 77.746,236.667 77.977 C 236.667 78.081,236.779 78.167,236.917 78.167 C 237.054 78.167,237.167 78.242,237.167 78.333 C 237.167 78.425,237.097 78.500,237.012 78.500 C 236.702 78.500,236.167 80.335,236.167 81.397 C 236.167 83.328,237.352 83.804,239.385 82.690 L 240.354 82.159 240.942 82.765 C 241.538 83.379,243.437 83.585,243.803 83.075 C 243.866 82.988,244.192 82.777,244.529 82.606 C 245.418 82.154,247.667 79.940,247.667 79.516 C 247.667 78.907,247.147 79.124,246.094 80.174 C 243.686 82.574,241.833 83.260,241.833 81.753 C 241.833 81.102,242.034 80.916,242.904 80.759 C 243.756 80.605,244.833 80.171,244.833 79.982 C 244.833 79.900,244.927 79.831,245.042 79.828 C 245.604 79.814,246.667 78.477,246.667 77.785 C 246.667 75.597,242.906 76.831,241.398 79.514 C 241.225 79.822,240.915 80.263,240.708 80.494 C 240.502 80.724,240.333 80.959,240.333 81.015 C 240.333 81.659,237.441 82.603,237.256 82.020 C 237.074 81.446,237.646 79.952,238.208 79.532 C 238.369 79.412,238.500 79.210,238.500 79.083 C 238.500 78.956,238.633 78.754,238.795 78.634 C 239.767 77.915,239.901 76.667,239.005 76.667 C 238.736 76.667,238.457 76.773,238.383 76.903 C 238.310 77.034,238.044 77.192,237.792 77.255 C 237.205 77.402,237.192 77.133,237.750 76.402 C 238.205 75.806,238.278 75.344,237.967 75.033 C 237.588 74.654,237.012 74.805,236.665 75.375 M269.882 75.201 C 269.685 75.411,269.472 75.797,269.407 76.058 C 269.241 76.725,268.116 78.424,267.042 79.629 C 266.432 80.313,266.333 80.833,266.814 80.833 C 267.107 80.833,267.696 80.234,269.049 78.563 C 269.557 77.935,269.633 77.896,269.927 78.111 C 270.145 78.271,270.188 78.385,270.060 78.465 C 269.364 78.901,268.922 81.785,269.421 82.629 C 269.807 83.283,271.394 83.537,271.833 83.015 C 271.879 82.961,272.217 82.768,272.583 82.587 C 272.950 82.405,273.438 82.068,273.667 81.837 L 274.083 81.417 274.134 81.938 C 274.229 82.915,275.982 83.770,276.467 83.076 C 276.531 82.984,276.808 82.767,277.083 82.593 C 277.358 82.419,277.681 82.139,277.801 81.972 C 278.109 81.540,278.274 81.591,278.480 82.181 C 278.579 82.464,278.811 82.736,278.996 82.784 C 279.182 82.833,279.333 82.938,279.333 83.019 C 279.333 83.438,281.373 82.550,281.665 82.003 C 281.764 81.818,281.918 81.667,282.007 81.667 C 282.097 81.667,282.077 81.815,281.961 82.000 C 281.781 82.289,281.813 82.388,282.203 82.750 C 282.630 83.146,283.567 83.329,283.694 83.042 C 283.725 82.973,284.066 82.745,284.452 82.534 C 286.558 81.388,289.337 78.170,289.331 76.884 C 289.326 75.813,288.737 75.167,287.766 75.167 C 287.177 75.167,287.207 75.566,287.845 76.204 C 288.692 77.051,288.023 78.358,285.819 80.162 C 284.020 81.634,283.618 81.841,283.770 81.216 C 283.833 80.960,283.934 80.712,283.995 80.667 C 284.055 80.621,284.282 80.096,284.500 79.500 C 284.718 78.904,284.970 78.366,285.061 78.305 C 285.533 77.986,285.267 76.585,284.724 76.532 C 284.101 76.472,283.811 76.808,283.395 78.076 C 282.984 79.327,282.092 80.498,280.503 81.875 C 279.540 82.710,279.268 81.427,280.197 80.429 C 280.363 80.250,280.500 80.020,280.500 79.917 C 280.500 79.814,280.649 79.570,280.831 79.374 C 281.829 78.303,282.092 76.833,281.287 76.833 C 281.082 76.833,280.814 76.673,280.692 76.478 C 280.312 75.870,278.186 76.245,277.199 77.094 C 275.890 78.221,275.333 78.750,275.333 78.868 C 275.333 79.505,271.755 82.333,270.950 82.333 C 269.920 82.333,270.099 80.778,271.273 79.511 C 271.490 79.278,271.667 79.041,271.667 78.985 C 271.667 78.929,271.896 78.643,272.177 78.349 C 273.080 77.404,272.389 75.968,271.472 76.886 C 270.706 77.651,270.174 77.312,270.768 76.438 C 271.566 75.264,270.809 74.207,269.882 75.201 M313.848 75.140 C 313.447 75.889,314.273 76.702,315.130 76.403 C 315.638 76.225,315.838 75.490,315.492 75.073 C 315.194 74.715,314.050 74.761,313.848 75.140 M358.571 75.238 C 358.422 75.833,358.623 76.286,359.089 76.403 C 360.091 76.655,360.750 76.028,360.323 75.230 C 360.007 74.640,358.720 74.646,358.571 75.238 M231.333 76.471 C 230.320 77.150,228.429 79.517,228.251 80.330 C 228.190 80.605,228.072 80.872,227.987 80.925 C 227.796 81.043,227.782 82.333,227.972 82.333 C 228.048 82.333,228.211 82.521,228.333 82.750 C 228.913 83.833,231.402 82.704,232.583 80.822 C 232.675 80.676,232.918 80.300,233.124 79.987 C 233.330 79.673,233.499 79.254,233.499 79.055 C 233.500 78.793,233.631 78.664,233.977 78.588 C 234.401 78.495,235.167 77.834,235.167 77.561 C 235.167 77.452,234.444 77.568,233.958 77.756 C 233.711 77.852,233.667 77.770,233.667 77.218 C 233.667 76.163,232.398 75.757,231.333 76.471 M340.333 76.471 C 339.543 77.001,338.578 78.118,337.486 79.767 C 337.206 80.189,335.429 81.674,334.583 82.192 C 333.947 82.583,332.908 82.603,332.764 82.228 C 332.645 81.916,332.814 80.833,332.983 80.833 C 333.044 80.833,333.237 80.592,333.412 80.297 C 333.781 79.671,334.558 78.874,335.202 78.458 C 335.787 78.082,335.788 78.082,335.705 78.645 C 335.520 79.911,337.332 79.347,337.575 78.062 C 338.124 75.172,333.935 76.712,331.853 80.167 C 331.336 81.024,331.379 82.833,331.917 82.833 C 332.035 82.833,332.174 82.946,332.227 83.083 C 332.349 83.401,334.202 83.435,334.530 83.125 C 334.651 83.010,335.099 82.746,335.525 82.538 C 335.951 82.330,336.343 82.049,336.395 81.913 C 336.533 81.553,336.833 81.612,336.833 82.000 C 336.833 82.183,336.896 82.333,336.972 82.333 C 337.048 82.333,337.211 82.521,337.333 82.750 C 337.634 83.311,338.787 83.337,339.558 82.800 C 340.843 81.904,342.500 79.800,342.500 79.065 C 342.500 78.809,342.634 78.670,342.958 78.589 C 343.441 78.469,344.167 77.885,344.167 77.617 C 344.167 77.461,343.532 77.534,342.958 77.756 C 342.711 77.852,342.667 77.770,342.667 77.218 C 342.667 76.163,341.398 75.757,340.333 76.471 M349.056 76.576 C 348.462 76.834,348.300 76.960,346.973 78.201 C 344.672 80.352,344.744 80.291,345.137 79.769 C 345.337 79.505,345.500 79.203,345.500 79.098 C 345.500 78.993,345.725 78.661,346.000 78.360 C 346.741 77.549,346.719 76.663,345.958 76.676 C 345.490 76.683,345.282 76.851,344.417 77.925 C 343.867 78.607,343.061 79.559,342.626 80.041 C 341.677 81.093,341.671 82.262,342.620 81.313 C 342.758 81.175,342.783 81.307,342.714 81.817 C 342.547 83.068,343.407 83.570,344.167 82.665 C 344.396 82.392,344.771 81.943,345.000 81.666 C 347.210 79.004,348.332 77.964,347.158 79.667 C 346.524 80.587,346.322 82.172,346.759 82.796 C 347.070 83.240,348.169 83.316,348.500 82.917 C 348.614 82.779,348.784 82.667,348.877 82.667 C 349.267 82.667,351.500 80.196,351.500 79.765 C 351.500 79.115,351.262 79.227,350.022 80.458 C 348.169 82.299,347.833 82.497,347.833 81.753 C 347.833 81.372,348.601 79.942,349.131 79.338 C 351.144 77.038,351.107 75.683,349.056 76.576 M303.700 76.700 C 303.590 76.810,303.500 76.957,303.500 77.028 C 303.500 77.098,303.285 77.494,303.022 77.908 C 302.760 78.322,302.450 79.000,302.334 79.414 C 302.218 79.828,302.067 80.167,301.998 80.167 C 301.831 80.167,301.332 81.706,301.339 82.198 C 301.356 83.479,302.240 83.445,303.226 82.125 C 303.654 81.552,304.190 80.858,304.418 80.583 L 304.832 80.083 304.833 80.599 C 304.833 81.141,305.207 82.047,305.634 82.542 C 305.924 82.878,307.190 82.942,307.947 82.657 C 308.351 82.506,309.198 81.712,309.966 80.764 C 310.924 79.582,310.871 76.674,309.889 76.532 C 309.554 76.484,309.537 76.546,309.560 77.782 C 309.584 79.118,309.603 79.057,308.590 80.970 C 308.429 81.275,308.118 81.605,307.899 81.705 C 307.679 81.805,307.500 81.950,307.500 82.027 C 307.500 82.357,306.711 82.145,306.505 81.759 C 306.129 81.058,306.389 80.101,307.319 78.756 C 307.785 78.081,308.167 77.486,308.167 77.433 C 308.167 77.174,307.551 76.667,307.235 76.667 C 306.857 76.667,304.703 78.627,304.353 79.292 C 304.244 79.498,304.064 79.666,303.952 79.664 C 303.814 79.662,303.807 79.623,303.930 79.539 C 304.029 79.472,304.292 79.042,304.513 78.583 C 304.735 78.125,304.973 77.725,305.042 77.694 C 305.281 77.588,305.169 76.703,304.903 76.601 C 304.478 76.438,303.916 76.484,303.700 76.700 M170.208 77.958 C 170.161 78.394,170.069 78.825,170.003 78.917 C 169.937 79.008,169.785 79.558,169.666 80.139 C 169.360 81.622,168.366 82.227,167.634 81.375 C 166.932 80.557,167.137 80.065,168.883 78.375 C 170.362 76.943,170.315 76.958,170.208 77.958 M322.333 77.242 C 322.333 77.283,322.108 77.650,321.833 78.057 C 321.558 78.465,321.333 78.884,321.333 78.989 C 321.333 79.181,319.276 81.333,319.092 81.333 C 319.038 81.333,318.705 81.515,318.354 81.737 C 316.779 82.731,315.547 82.638,315.725 81.539 C 315.778 81.212,315.896 80.898,315.987 80.841 C 316.078 80.785,316.249 80.517,316.368 80.244 C 316.486 79.972,316.872 79.286,317.225 78.719 L 317.867 77.690 318.975 77.579 C 319.585 77.518,320.458 77.409,320.917 77.337 C 321.967 77.171,322.333 77.147,322.333 77.242 M279.536 78.430 C 279.104 79.033,278.637 79.693,278.500 79.896 C 277.917 80.756,276.128 82.333,275.735 82.333 C 274.355 82.333,276.851 78.826,279.096 77.611 C 280.250 76.986,280.388 77.242,279.536 78.430 M364.928 78.059 C 364.601 78.458,364.333 78.844,364.333 78.916 C 364.333 79.068,364.147 79.274,362.412 81.042 C 360.829 82.654,360.096 82.750,360.658 81.273 C 361.154 79.967,364.129 77.355,365.136 77.339 C 365.507 77.334,365.499 77.362,364.928 78.059 M194.162 77.708 C 194.153 78.112,193.053 79.097,192.041 79.606 L 191.017 80.122 191.467 79.519 C 191.941 78.883,192.151 78.696,193.220 77.958 C 193.952 77.453,194.169 77.395,194.162 77.708 M244.934 78.743 C 244.511 79.120,243.827 79.554,243.414 79.707 L 242.662 79.986 243.283 79.243 C 243.624 78.834,243.963 78.500,244.035 78.500 C 244.108 78.500,244.321 78.346,244.509 78.158 C 244.697 77.970,245.015 77.754,245.217 77.679 C 245.901 77.422,245.742 78.022,244.934 78.743 M292.500 77.843 C 292.500 78.438,290.680 79.833,289.903 79.833 C 289.435 79.833,291.809 77.675,292.458 77.511 C 292.481 77.505,292.500 77.654,292.500 77.843 M373.167 77.608 C 373.167 77.933,371.898 79.186,371.253 79.499 C 370.326 79.947,370.075 79.884,370.560 79.324 C 371.432 78.316,373.167 77.174,373.167 77.608 M390.721 78.600 C 390.085 79.199,389.565 79.523,388.726 79.842 C 388.082 80.087,388.623 79.426,390.072 78.198 C 391.218 77.226,391.797 77.585,390.721 78.600 M182.499 78.582 C 182.851 79.238,182.113 80.390,180.444 81.792 C 179.398 82.670,179.093 81.370,180.073 80.215 C 181.915 78.046,182.133 77.899,182.499 78.582 M232.268 78.458 C 232.724 79.059,231.876 80.503,230.400 81.640 C 228.437 83.153,229.265 80.413,231.333 78.552 C 231.840 78.096,231.982 78.082,232.268 78.458 M341.327 78.489 C 341.678 79.144,340.820 80.547,339.400 81.640 C 337.519 83.090,338.358 80.286,340.324 78.553 C 340.850 78.089,341.105 78.073,341.327 78.489 M146.338 81.013 L 146.632 81.883 146.214 82.256 C 145.167 83.189,145.223 83.167,144.990 82.732 C 144.832 82.435,144.823 82.237,144.958 81.958 C 145.057 81.752,145.272 81.189,145.436 80.708 C 145.776 79.705,145.910 79.751,146.338 81.013 M248.278 81.611 C 248.105 81.784,248.147 82.635,248.333 82.750 C 248.627 82.932,248.512 83.431,248.083 83.833 C 247.560 84.325,247.550 84.667,248.058 84.667 C 248.593 84.667,249.658 83.605,249.697 83.034 C 249.753 82.208,249.682 81.779,249.465 81.641 C 249.205 81.477,248.432 81.457,248.278 81.611 " stroke="none" fill="#131313" fill-rule="evenodd"></path><path id="path2" d="" stroke="none" fill="#1002820" fill-rule="evenodd"></path><path id="path3" d="" stroke="none" fill="#1002820" fill-rule="evenodd"></path><path id="path4" d="" stroke="none" fill="#1002820" fill-rule="evenodd"></path></g></svg>